<?xml version="1.0" standalone="no"?>
<!DOCTYPE svg PUBLIC "-//W3C//DTD SVG 20010904//EN"
 "http://www.w3.org/TR/2001/REC-SVG-20010904/DTD/svg10.dtd">
<svg version="1.0" xmlns="http://www.w3.org/2000/svg"
 width="2362.000000pt" height="2362.000000pt" viewBox="0 0 2362.000000 2362.000000"
 preserveAspectRatio="xMidYMid meet">

<g transform="translate(0.000000,2362.000000) scale(0.100000,-0.100000)"
fill="#000000" stroke="none">
<path d="M11185 23329 c-2021 -111 -3946 -736 -5642 -1830 -307 -199 -649
-446 -950 -687 -162 -129 -503 -420 -503 -429 0 -3 8 -2 18 2 9 3 -222 -234
-513 -527 -535 -537 -714 -730 -906 -978 -799 -1028 -1422 -2192 -1834 -3425
-327 -981 -517 -1995 -575 -3065 -13 -239 -13 -941 0 -1180 50 -928 193 -1775
445 -2645 382 -1318 1010 -2575 1838 -3680 516 -688 1140 -1350 1797 -1906
1118 -945 2409 -1671 3795 -2134 981 -327 1995 -517 3065 -575 239 -13 941
-13 1180 0 929 50 1774 192 2649 446 1312 380 2577 1013 3676 1837 481 361
868 700 1310 1148 873 885 1552 1834 2109 2949 548 1098 907 2237 1085 3445
88 590 121 1062 121 1705 0 413 -8 627 -35 965 -175 2148 -963 4223 -2258
5950 -520 693 -1139 1350 -1797 1906 -1118 945 -2409 1671 -3795 2134 -981
327 -1995 517 -3065 575 -215 12 -996 11 -1215 -1z m-75 -4445 c96 -4 621 -7
1165 -8 l990 -1 60 -28 c33 -16 94 -40 135 -54 41 -14 111 -42 155 -63 44 -20
98 -40 120 -44 47 -9 239 -102 310 -151 28 -19 68 -47 90 -62 52 -37 140 -90
190 -115 22 -12 78 -56 125 -99 47 -42 111 -97 142 -121 31 -24 83 -63 114
-87 32 -25 104 -91 161 -148 56 -57 128 -124 160 -148 135 -103 169 -133 202
-181 20 -28 50 -67 66 -87 17 -20 48 -59 70 -88 68 -88 199 -229 212 -229 7 0
13 -5 13 -11 0 -6 22 -31 49 -55 28 -25 60 -62 72 -82 12 -20 34 -50 50 -67
15 -16 66 -106 114 -200 48 -93 95 -181 105 -195 10 -14 39 -65 65 -115 26
-49 60 -104 76 -122 28 -33 139 -248 139 -272 0 -6 12 -35 26 -64 18 -34 28
-74 32 -117 2 -37 12 -78 23 -95 15 -26 59 -173 76 -255 3 -14 12 -33 21 -42
24 -28 31 -296 31 -1213 1 -822 0 -841 -19 -870 -13 -20 -20 -47 -20 -82 0
-29 -9 -79 -19 -110 -11 -32 -25 -76 -30 -99 -6 -23 -30 -71 -53 -107 -24 -36
-51 -78 -61 -94 -32 -51 -111 -173 -158 -241 -26 -37 -68 -102 -95 -144 -27
-42 -79 -124 -116 -181 -37 -58 -77 -131 -89 -163 -26 -68 -111 -164 -201
-225 -31 -21 -73 -60 -95 -85 -64 -79 -127 -137 -189 -176 -81 -50 -212 -166
-254 -226 -24 -33 -64 -68 -124 -108 -132 -87 -235 -173 -376 -314 -69 -70
-172 -165 -230 -212 -114 -92 -264 -245 -332 -337 -23 -32 -75 -82 -116 -112
-69 -50 -304 -288 -418 -424 -136 -160 -246 -364 -311 -576 l-38 -124 3 -305
c2 -168 0 -352 -3 -408 l-7 -104 -64 -68 c-35 -37 -64 -72 -64 -78 0 -18 -62
-33 -180 -43 -69 -6 -547 -9 -1195 -7 l-1080 3 -55 24 c-69 31 -99 52 -100 70
0 7 -9 28 -20 45 -43 70 -50 133 -50 438 0 158 4 307 9 330 16 71 33 160 41
218 15 94 131 394 169 434 17 18 48 80 116 231 7 17 21 52 30 79 10 26 36 70
59 96 85 100 122 145 150 185 15 22 42 54 60 71 44 44 90 103 110 142 9 17 46
62 83 100 36 37 99 119 141 182 41 63 100 140 131 170 31 30 102 114 156 186
82 108 117 145 195 205 52 40 182 159 290 264 166 162 215 204 330 279 153
101 368 250 539 376 64 47 170 124 236 172 221 158 409 336 499 471 109 165
189 362 220 539 8 48 21 97 28 110 10 18 13 118 13 458 0 489 -9 619 -49 698
-14 27 -30 80 -36 118 -55 335 -220 648 -466 884 -138 133 -382 286 -574 361
-58 23 -117 50 -132 60 -15 11 -68 28 -119 39 -87 19 -134 20 -819 20 -688 0
-731 -1 -820 -20 -56 -12 -105 -29 -124 -43 -17 -12 -58 -31 -91 -41 -82 -24
-209 -93 -299 -161 -112 -84 -292 -266 -390 -395 -48 -63 -116 -151 -152 -195
-106 -130 -167 -269 -274 -620 -30 -96 -40 -199 -48 -482 -4 -133 -11 -245
-16 -250 -14 -14 -428 -21 -1261 -21 -838 0 -1247 7 -1262 21 -4 5 -8 338 -7
740 0 717 1 734 22 817 12 47 28 132 37 189 11 76 22 117 42 150 42 71 74 140
99 214 13 37 38 86 57 110 19 23 50 67 70 97 20 30 63 94 94 142 32 48 70 107
85 130 15 24 48 70 73 103 24 33 58 83 75 110 18 28 41 64 53 82 23 34 68 104
103 161 21 33 78 107 140 180 17 20 40 51 50 68 31 51 101 128 259 286 83 82
166 172 185 198 19 27 54 76 76 108 57 79 138 145 265 218 26 14 75 57 109 95
34 38 80 79 103 91 23 11 56 31 72 43 30 23 216 115 231 115 11 0 137 61 154
75 8 7 64 38 123 69 86 45 123 58 180 66 84 11 169 27 212 39 17 5 75 19 130
31 55 12 116 26 135 32 19 6 112 15 205 19 94 5 206 13 250 18 44 5 123 7 175
5 52 -3 174 -7 270 -10z m1758 -11434 c40 -5 92 -18 116 -29 54 -24 116 -85
116 -114 0 -13 6 -29 13 -35 9 -10 12 -255 12 -1157 0 -629 -3 -1147 -7 -1150
-19 -19 -156 -47 -273 -55 -169 -12 -2081 -12 -2250 0 -117 8 -254 36 -273 55
-4 3 -7 521 -7 1150 0 902 3 1147 13 1157 6 6 12 22 12 35 0 30 62 91 117 115
24 11 72 23 106 27 89 12 2216 12 2305 1z"/>
</g>
</svg>
