<?xml version="1.0" standalone="no"?>
<!DOCTYPE svg PUBLIC "-//W3C//DTD SVG 20010904//EN"
 "http://www.w3.org/TR/2001/REC-SVG-20010904/DTD/svg10.dtd">
<svg version="1.0" xmlns="http://www.w3.org/2000/svg"
 width="2362.000000pt" height="2362.000000pt" viewBox="0 0 2362.000000 2362.000000"
 preserveAspectRatio="xMidYMid meet">

<g transform="translate(0.000000,2362.000000) scale(0.100000,-0.100000)"
fill="#000000" stroke="none">
<path d="M11220 23379 c-1599 -71 -3168 -478 -4592 -1190 -324 -162 -689 -366
-918 -513 -861 -553 -1400 -984 -2091 -1675 -333 -333 -508 -523 -748 -811
-1381 -1657 -2273 -3697 -2545 -5820 -77 -597 -102 -1071 -93 -1750 6 -462 13
-606 48 -975 164 -1761 742 -3472 1679 -4970 343 -549 725 -1058 1166 -1555
160 -181 668 -695 874 -885 1108 -1022 2433 -1827 3845 -2334 1124 -405 2231
-621 3445 -672 303 -13 1043 -7 1300 11 1046 71 1984 253 2930 570 1479 494
2787 1253 3976 2304 218 193 817 792 1010 1010 701 793 1225 1568 1693 2506
693 1390 1081 2837 1181 4402 29 455 21 1303 -15 1753 -134 1651 -610 3232
-1399 4647 -415 745 -857 1368 -1445 2038 -168 192 -804 831 -1002 1007 -976
870 -2053 1548 -3258 2050 -1205 501 -2534 794 -3881 853 -256 11 -899 11
-1160 -1z m1125 -2029 c2193 -128 4203 -962 5850 -2429 167 -149 577 -559 726
-726 1387 -1557 2216 -3456 2403 -5505 31 -333 39 -570 33 -1015 -5 -460 -17
-651 -63 -1030 -220 -1821 -963 -3536 -2146 -4957 -350 -420 -796 -866 -1216
-1216 -1497 -1247 -3320 -2003 -5247 -2177 -300 -27 -502 -35 -875 -35 -373 0
-575 8 -875 35 -1927 174 -3750 930 -5247 2177 -420 350 -866 796 -1216 1216
-1247 1497 -2003 3319 -2177 5247 -27 300 -35 502 -35 875 0 373 8 575 35 875
174 1928 930 3750 2177 5247 364 437 832 902 1273 1263 1561 1283 3484 2035
5505 2154 199 12 899 12 1095 1z"/>
<path d="M10640 18869 c-41 -4 -140 -8 -220 -9 -90 -1 -159 -7 -185 -15 -22
-8 -83 -23 -135 -35 -52 -11 -113 -26 -135 -31 -56 -15 -126 -27 -223 -38 -61
-7 -96 -17 -130 -38 -26 -15 -69 -40 -97 -54 -98 -51 -147 -79 -159 -88 -6 -5
-33 -16 -60 -25 -27 -9 -67 -27 -90 -40 -22 -13 -53 -26 -68 -30 -14 -3 -46
-21 -70 -39 -24 -18 -64 -45 -90 -60 -25 -15 -68 -52 -94 -83 -32 -37 -91 -85
-174 -139 -131 -86 -144 -98 -194 -169 -96 -135 -150 -197 -269 -311 -73 -69
-148 -148 -167 -174 -55 -76 -119 -160 -185 -241 -33 -41 -72 -91 -85 -110
-13 -19 -36 -50 -52 -68 -15 -18 -42 -61 -59 -94 -17 -34 -50 -87 -73 -117
-22 -31 -91 -130 -152 -221 -187 -278 -226 -334 -244 -355 -10 -11 -28 -51
-40 -90 -25 -75 -68 -167 -106 -225 -18 -27 -27 -60 -35 -125 -5 -49 -20 -132
-34 -185 -20 -81 -25 -137 -35 -385 -13 -314 -10 -1168 3 -1182 11 -11 2513
-11 2524 0 4 5 9 120 11 255 2 136 8 251 13 257 5 5 9 30 9 56 0 83 39 276 75
376 90 245 128 316 247 457 46 54 96 117 112 140 117 165 355 394 500 482 47
29 120 64 163 79 43 15 107 39 142 53 134 52 141 52 941 52 782 0 838 -3 922
-46 16 -8 59 -24 95 -35 37 -12 92 -32 122 -45 72 -32 325 -183 398 -238 140
-106 364 -377 438 -531 68 -141 134 -356 151 -485 4 -30 16 -77 26 -105 11
-27 22 -81 25 -120 2 -38 9 -79 14 -90 14 -29 6 -900 -9 -1000 -38 -247 -148
-500 -298 -686 -89 -109 -312 -304 -479 -417 -38 -27 -127 -91 -197 -142 -70
-52 -173 -126 -228 -165 -56 -38 -123 -86 -148 -106 -26 -19 -65 -46 -87 -59
-152 -88 -238 -157 -406 -326 -103 -104 -217 -208 -280 -255 -93 -70 -116 -94
-194 -200 -48 -66 -125 -157 -169 -202 -45 -45 -90 -100 -100 -122 -29 -61
-73 -123 -145 -203 -36 -40 -79 -93 -96 -116 -43 -62 -138 -177 -204 -249 -32
-34 -70 -80 -85 -102 -14 -22 -42 -59 -61 -83 -19 -24 -39 -62 -46 -84 -14
-55 -86 -204 -143 -298 -25 -41 -46 -81 -46 -88 0 -7 -12 -36 -26 -64 -37 -74
-83 -229 -104 -358 -7 -41 -19 -97 -26 -125 -16 -62 -19 -560 -3 -652 7 -37
23 -81 41 -109 16 -26 27 -52 24 -59 -14 -36 84 -74 218 -86 144 -11 2080 -11
2211 1 105 9 165 25 165 42 0 6 29 41 63 78 l64 67 6 78 c10 117 8 285 -3 346
-22 112 -10 352 25 505 18 76 86 251 128 324 66 117 186 278 271 365 49 49
115 123 147 162 54 67 169 168 236 208 16 9 53 49 83 88 80 104 253 280 335
341 39 30 134 116 210 192 155 152 278 255 401 333 48 30 93 68 108 90 45 64
165 174 263 239 64 43 108 82 146 129 30 38 81 88 113 113 109 83 189 171 212
231 11 30 46 93 77 140 31 46 65 101 76 122 11 20 50 81 86 135 188 274 301
459 331 542 11 30 27 73 36 95 8 22 15 67 16 100 0 45 7 71 25 104 l25 43 -1
822 c0 451 -4 902 -8 1000 -8 161 -11 182 -28 196 -11 9 -23 33 -27 55 -4 22
-13 51 -20 65 -7 14 -16 45 -20 69 -4 25 -18 65 -31 90 -15 30 -25 69 -28 112
-3 48 -13 81 -36 125 -17 32 -31 65 -31 73 0 7 -13 39 -29 70 -16 31 -35 72
-42 91 -8 19 -29 52 -49 74 -39 43 -64 83 -110 171 -17 33 -48 92 -69 130 -22
39 -53 97 -70 130 -90 176 -141 253 -223 338 -32 33 -58 68 -58 79 0 12 -7 18
-22 18 -23 0 -97 77 -205 212 -24 29 -63 77 -88 107 -25 30 -45 58 -45 63 0
15 -75 91 -115 116 -62 39 -126 96 -273 240 -75 73 -150 141 -166 149 -33 17
-76 52 -217 178 -50 44 -114 94 -143 110 -30 17 -62 37 -72 46 -11 9 -39 27
-64 39 -25 13 -47 26 -50 30 -3 4 -30 22 -60 40 -30 18 -65 42 -76 52 -12 11
-46 29 -75 42 -30 12 -72 31 -94 42 -22 12 -60 26 -85 32 -25 6 -80 27 -122
46 -80 36 -173 73 -248 99 -25 8 -63 22 -85 30 -34 13 -205 16 -1210 22 -643
3 -1213 7 -1265 9 -52 1 -129 -1 -170 -5z"/>
<path d="M10563 7449 c-34 -4 -82 -16 -106 -27 -55 -24 -117 -85 -117 -115 0
-13 -6 -29 -12 -35 -10 -10 -13 -255 -13 -1158 0 -997 2 -1146 15 -1154 8 -5
46 -17 85 -27 66 -17 148 -18 1305 -18 1157 0 1239 1 1305 18 39 10 77 22 85
27 13 8 15 157 15 1154 0 903 -3 1148 -12 1158 -7 6 -13 22 -13 35 0 29 -62
90 -116 114 -24 11 -76 24 -116 29 -89 11 -2216 11 -2305 -1z"/>
</g>
</svg>
