<svg id="Capa_1" enable-background="new 0 0 512.001 512.001" height="512" viewBox="0 0 512.001 512.001" width="512" xmlns="http://www.w3.org/2000/svg"><g><g><g><path d="m270.939 504.999-.043-.499.011-.251-.012-.249h.065l.007.999-.022-.155zm-.044-.499v-.5z"/></g></g><g><path d="m140.027 246.111-24.065-6.448c-3.997-1.074-8.113 1.302-9.186 5.303-1.072 4.001 1.302 8.114 5.304 9.186l7.078 1.897c-.252.751-.395 1.552-.395 2.387v10.366c0 4.143 3.358 7.5 7.5 7.5s7.5-3.357 7.5-7.5v-8.84l2.381.638c.65.175 1.303.258 1.946.258 3.311 0 6.342-2.21 7.24-5.561 1.072-4.001-1.302-8.114-5.303-9.186z"/><path d="m270.648 244.966c-1.072-4.001-5.185-6.38-9.186-5.303l-24.065 6.448c-4.001 1.071-6.375 5.185-5.303 9.186.898 3.351 3.928 5.561 7.24 5.561.643 0 1.296-.083 1.946-.258l2.381-.638v8.84c0 4.143 3.358 7.5 7.5 7.5s7.5-3.357 7.5-7.5v-10.366c0-.836-.143-1.637-.395-2.387l7.078-1.897c4.002-1.072 6.376-5.185 5.304-9.186z"/></g><g><path d="m489.5 108.622h-8.541c-42.734 0-77.5 34.767-77.5 77.5v117.303c0 36.71-26.827 66.89-62.351 71.794-.28-4.46-1.276-8.948-3.08-13.301-4.605-11.119-13.529-19.437-24.47-23.319 5.419-7.712 10.148-15.943 14.084-24.608 2.025.468 4.103.72 6.195.72 15.164 0 27.5-12.337 27.5-27.5 0-.746-.038-1.482-.097-2.214 10.196-8.24 16.178-20.59 16.178-33.868 0-13.328-6.01-25.697-16.257-33.934.477-2.008.737-4.099.737-6.251v-37.758c0-39.956-13.933-78.942-39.231-109.777-24.95-30.411-59.768-51.604-98.041-59.679-.236-.049-.472-.085-.707-.111-.148-.04-.289-.095-.441-.126-11.369-2.317-23.067-3.493-34.766-3.493h-115.688c-31.706 0-57.5 25.794-57.5 57.5v153.445c0 2.152.26 4.244.737 6.253-10.235 8.244-16.261 20.667-16.261 33.933 0 13.248 5.99 25.623 16.178 33.865-.059.732-.097 1.469-.097 2.216 0 15.163 12.336 27.5 27.5 27.5 2.096 0 4.174-.254 6.198-.721 3.943 8.68 8.681 16.925 14.113 24.649-10.9 3.913-19.932 12.256-24.498 23.279-8.796 21.235 1.325 45.669 22.561 54.465l14.165 5.867c8.031 25.364 24.191 48.125 45.594 64.153 22.361 16.744 48.986 25.596 76.998 25.596.02.001.043.001.066 0h112.183c57.645 0 110.536-29.086 141.483-77.804 2.221-3.496 1.188-8.131-2.309-10.353-3.497-2.221-8.131-1.187-10.352 2.31-26.832 42.239-71.778 68.252-121.322 70.647v-81.81c10.2-5.197 17.453-14.163 20.747-24.467 20.746-1.937 39.975-11.121 54.605-26.223 15.894-16.407 24.647-38.026 24.647-60.875v-117.303c0-34.463 28.038-62.5 62.5-62.5h8.541c4.136 0 7.5 3.365 7.5 7.501s-3.364 7.5-7.5 7.5c-14.358 0-26.04 11.681-26.04 26.039v179.838c0 19.377-3.583 38.253-10.648 56.102-1.524 3.852.362 8.21 4.213 9.734.906.358 1.839.528 2.758.528 2.986 0 5.81-1.796 6.976-4.741 7.764-19.615 11.701-40.348 11.701-61.623v-179.838c0-6.087 4.952-11.039 11.04-11.039 12.407 0 22.5-10.094 22.5-22.5-.001-12.407-10.094-22.501-22.501-22.501zm-300.788 280.006c-75.818 0-137.5-61.683-137.5-137.5 0-4.375.208-8.773.618-13.123h.536c80.546 0 121.834-33.981 136.357-49.305 14.739 15.532 56.032 49.305 136.334 49.305h.531c.411 4.35.623 8.746.623 13.123.001 75.817-61.681 137.5-137.499 137.5zm55.047-363.769c5.451 34.19 16.696 61.929 33.479 82.454 2.284 3.14 22.399 29.299 68.244 44.867.933 6.895 1.417 13.909 1.417 21.008v11.312c-37.857-3.968-63.726-16.358-79.036-26.365-17.577-11.489-25.443-22.407-25.504-22.492-.111-.159-.228-.313-.351-.463-5.993-7.299-11.276-15.812-15.725-25.299 2.377-11.746 4.006-24.326 4.873-37.724 1.408-21.764.409-40.431-.563-51.544 4.477 1.228 8.868 2.646 13.166 4.246zm-22.918 106.426c2.926 4.702 6.067 9.123 9.415 13.219 3.052 4.213 36.087 47.209 116.644 55.072v11.369c0 6.649-5.41 12.06-12.06 12.06h-9.782c-77.716 0-115.832-34.165-126.721-46.026 9.502-12.843 17.017-28.107 22.504-45.694zm112.998 168.427c-.185 0-.368-.027-.552-.035 2.58-7.663 4.559-15.599 5.897-23.747 4.222 2.009 7.155 6.304 7.155 11.283 0 6.891-5.607 12.499-12.5 12.499zm21.442-29.691c-3.622-4.508-8.63-7.855-14.374-9.384.195-3.146.305-6.315.305-9.509 0-4.582-.22-9.182-.627-13.743 4.975-1.08 9.44-3.532 12.986-6.939 5.615 5.344 8.849 12.76 8.849 20.685 0 7.068-2.59 13.735-7.139 18.89zm-13.116-135.042c-36.964-14.71-52.674-36.318-52.828-36.535-.111-.158-.228-.312-.35-.461-13.591-16.551-23.221-38.669-28.701-65.863 40.633 20.746 70.726 58.493 81.879 102.859zm-126.983-117.773c2.262 21.846 7.938 106.212-32.267 155.171-.11.135-.233.298-.334.439-.089.126-9.151 12.691-29.589 25.079-18.898 11.455-51.697 25.109-100.625 25.109h-9.782c-6.65 0-12.06-5.41-12.06-12.06v-14.435c78.74-8.507 111.127-50.647 114.145-54.81 29.462-36.033 36.639-87.626 37.145-126.699h6.897c8.883 0 17.764.741 26.47 2.206zm-48.367-2.206c-.49 36.651-7.072 84.708-33.9 117.377-.11.135-.233.297-.333.438-.076.106-7.762 10.772-24.909 22.109-14.948 9.883-40.208 22.207-77.149 26.492v-46.4c42.732-15.7 61.627-40.285 63.828-43.311 15.821-19.348 26.737-45.142 32.503-76.705zm-93.791 0h38.567c-5.431 27.887-15.159 50.538-28.988 67.377-.11.135-.232.296-.333.438-.163.229-15.571 21.432-51.747 36.119v-61.434c.001-23.435 19.066-42.5 42.501-42.5zm-58.024 236.131c0-7.888 3.251-15.323 8.862-20.676 3.543 3.401 8.004 5.849 12.973 6.929-.407 4.562-.623 9.163-.623 13.744 0 3.194.111 6.362.305 9.508-5.745 1.529-10.754 4.876-14.377 9.384-4.549-5.159-7.14-11.837-7.14-18.889zm28.581 48.581c-6.893 0-12.5-5.607-12.5-12.5 0-4.98 2.934-9.276 7.158-11.284 1.338 8.149 3.317 16.084 5.897 23.747-.185.008-.368.037-.555.037zm9.671 67.946c3.604-8.7 11.552-14.797 20.735-16.173 25.863 29.529 62.914 49.017 104.469 51.791-1.43 7.432-.795 15.099 1.913 22.337-6.892 10.576-20.693 15.013-32.576 10.091l-80.099-33.178c-13.594-5.632-20.073-21.273-14.442-34.868zm145.408 129.342c-45.367-.021-85.405-26.384-103.539-66.879l46.932 19.44c5.123 2.122 10.473 3.131 15.763 3.13 11.607 0 22.909-4.867 30.863-13.459 4.058 4.432 9.069 7.962 14.787 10.33 5.144 2.13 10.547 3.195 15.952 3.195 5.404 0 10.809-1.065 15.953-3.196l28.09-11.635v59.074h-64.683c-.032-.001-.076-.001-.118 0zm104.801-75.643v75.643h-25v-65.288zm6.268-18.832-80.099 33.178c-6.586 2.729-13.839 2.727-20.424 0-6.585-2.728-11.715-7.856-14.442-14.442-2.367-5.713-2.675-11.898-.948-17.728 43.644-1.443 82.702-21.309 109.63-52.059 9.27 1.371 17.095 7.418 20.726 16.184 5.631 13.595-.848 29.236-14.443 34.867z"/><path d="m279.989 278.649c-5.323-2.279-11.404-1.107-15.493 2.984-4.599 4.604-10.715 7.139-17.222 7.141-.002 0-.003 0-.005 0-6.504 0-12.62-2.533-17.22-7.134-11.04-11.038-28.251-12.222-40.648-3.543-12.377-8.68-29.609-7.505-40.659 3.543-4.6 4.601-10.715 7.134-17.22 7.134-.002 0-.004 0-.005 0-6.507-.002-12.623-2.537-17.222-7.141-4.089-4.093-10.17-5.266-15.493-2.984-5.308 2.273-8.646 7.468-8.505 13.232.364 14.903 6.371 28.917 16.916 39.463 11.271 11.271 26.077 16.906 40.883 16.906s29.611-5.636 40.883-16.906l.418-.418.418.418c11.271 11.271 26.077 16.906 40.882 16.906 14.806 0 29.612-5.636 40.883-16.907 10.544-10.545 16.552-24.559 16.916-39.462.139-5.764-3.2-10.958-8.507-13.232zm-162.171 42.089c-7.251-7.252-11.605-16.72-12.405-26.87 7.202 6.403 16.382 9.904 26.1 9.906h.009c10.511-.001 20.394-4.094 27.827-11.526 5.422-5.422 13.66-6.325 20.02-2.76-2.341 4.477-3.586 9.481-3.586 14.677 0 5.423 1.357 10.636 3.9 15.261l-1.312 1.312c-16.695 16.695-43.859 16.694-60.553 0zm143.154-.001c-16.694 16.695-43.858 16.695-60.553 0l-4.733-4.732c-3.162-3.163-4.904-7.367-4.904-11.84 0-4.472 1.742-8.676 4.937-11.871l.045-.046c3.264-3.265 7.551-4.896 11.839-4.896 4.287 0 8.575 1.633 11.839 4.896 7.433 7.433 17.315 11.526 27.827 11.526h.009c9.718-.002 18.898-3.503 26.1-9.906-.8 10.152-5.154 19.618-12.406 26.869z"/></g></g></svg>