<?xml version="1.0" standalone="no"?>
<!DOCTYPE svg PUBLIC "-//W3C//DTD SVG 20010904//EN"
 "http://www.w3.org/TR/2001/REC-SVG-20010904/DTD/svg10.dtd">
<svg version="1.0" xmlns="http://www.w3.org/2000/svg"
 width="2362.000000pt" height="2362.000000pt" viewBox="0 0 2362.000000 2362.000000"
 preserveAspectRatio="xMidYMid meet">

<g transform="translate(0.000000,2362.000000) scale(0.100000,-0.100000)"
fill="#000000" stroke="none">
<path d="M7550 23610 c0 -6 -28 -10 -63 -10 -50 0 -69 -5 -87 -20 -19 -16 -37
-20 -97 -20 -44 0 -72 -4 -68 -9 10 -17 -32 -31 -90 -31 -35 0 -54 -4 -50 -10
9 -14 -38 -30 -86 -30 -24 0 -38 -4 -34 -10 8 -12 -36 -30 -76 -30 -19 0 -29
-5 -29 -15 0 -8 -9 -16 -20 -16 -11 -1 -24 -3 -30 -4 -5 -1 -19 -3 -30 -4 -11
0 -20 -8 -20 -16 0 -11 -12 -15 -45 -15 -38 0 -45 -3 -43 -17 2 -14 -6 -19
-42 -23 -31 -3 -45 -10 -45 -20 0 -10 -12 -16 -38 -18 -28 -2 -37 -7 -33 -17
6 -16 -14 -25 -54 -25 -20 0 -27 -5 -26 -17 1 -13 -8 -19 -34 -23 -22 -3 -35
-10 -35 -20 0 -10 -12 -16 -31 -18 -22 -2 -34 -9 -37 -23 -4 -14 -14 -19 -37
-19 -20 0 -29 -4 -24 -11 8 -14 -14 -29 -43 -29 -16 0 -21 -4 -17 -15 5 -11
-3 -17 -25 -21 -17 -4 -31 -13 -31 -20 0 -8 -13 -17 -29 -20 -17 -4 -31 -14
-34 -25 -3 -11 -14 -19 -26 -19 -12 0 -21 -6 -21 -15 0 -9 -9 -15 -24 -15 -15
0 -26 -7 -29 -20 -3 -12 -14 -20 -26 -20 -14 0 -21 -6 -21 -20 0 -15 -7 -20
-25 -20 -18 0 -25 -5 -25 -20 0 -14 -7 -20 -24 -20 -17 0 -23 -5 -22 -17 0
-11 -7 -19 -20 -21 -12 -2 -24 -12 -27 -23 -3 -11 -14 -19 -26 -19 -14 0 -19
-5 -15 -15 4 -9 -3 -16 -20 -21 -14 -3 -24 -11 -23 -17 1 -6 -8 -16 -20 -21
-12 -6 -24 -18 -26 -28 -3 -10 -12 -18 -21 -18 -9 0 -16 -7 -16 -15 0 -9 -10
-20 -22 -25 -13 -5 -18 -9 -13 -9 6 -1 -6 -16 -26 -34 -19 -18 -38 -40 -42
-50 -3 -9 -13 -17 -21 -17 -10 0 -13 -6 -9 -16 4 -10 -1 -17 -16 -21 -12 -3
-21 -13 -21 -24 0 -12 -7 -19 -20 -19 -13 0 -18 -5 -13 -16 4 -10 -1 -17 -16
-21 -12 -3 -21 -13 -21 -24 0 -12 -7 -19 -18 -19 -13 0 -21 -11 -28 -37 -5
-21 -15 -37 -22 -35 -7 1 -12 -7 -12 -19 0 -12 -8 -23 -20 -26 -11 -3 -20 -14
-20 -24 0 -11 -6 -19 -14 -19 -15 0 -26 -21 -26 -51 0 -10 -7 -19 -15 -19 -9
0 -19 -8 -22 -17 -4 -10 -13 -22 -20 -26 -7 -5 -11 -12 -8 -18 4 -5 1 -9 -4
-9 -6 0 -11 -11 -11 -25 0 -18 -5 -25 -20 -25 -14 0 -20 -7 -21 -22 -3 -48 -5
-53 -21 -52 -13 1 -18 -5 -18 -22 0 -13 -4 -24 -10 -24 -5 0 -6 -8 -3 -17 5
-12 2 -15 -10 -10 -14 5 -17 0 -17 -22 0 -20 -6 -30 -20 -34 -15 -4 -20 -14
-20 -40 0 -27 -5 -36 -21 -40 -18 -5 -21 -11 -16 -36 4 -18 2 -31 -3 -31 -6 0
-10 -8 -10 -17 0 -15 -2 -16 -10 -3 -9 13 -10 13 -11 0 -3 -25 -5 -54 -7 -77
-1 -13 -9 -23 -17 -23 -11 0 -15 -11 -15 -36 0 -27 -5 -37 -20 -41 -14 -4 -20
-14 -20 -33 0 -47 -12 -90 -25 -90 -8 0 -14 -20 -17 -52 -3 -31 -12 -56 -22
-63 -11 -8 -16 -27 -16 -59 0 -56 -17 -97 -31 -75 -5 9 -9 -16 -9 -66 0 -44 0
-538 0 -1097 l0 -1018 -1942 -2 c-2181 -3 -1973 4 -2147 -79 -250 -119 -423
-329 -492 -597 -18 -73 -19 -136 -19 -1992 0 -1856 1 -1919 19 -1992 69 -268
242 -478 492 -597 156 -75 198 -81 582 -81 l338 0 -1 -5968 -1 -5968 25 -119
c44 -213 140 -423 287 -630 58 -81 212 -238 304 -310 28 -21 66 -53 85 -70 41
-37 215 -131 310 -167 131 -51 402 -122 523 -138 110 -14 17366 -14 17457 1
89 14 393 113 423 137 7 5 45 24 84 40 217 92 431 256 635 487 128 145 239
361 294 574 48 189 56 246 60 421 1 85 3 2755 3 5933 l1 5777 333 0 c378 0
421 6 576 81 250 119 423 329 492 597 18 73 19 136 19 1992 0 1867 -1 1919
-19 1993 -72 279 -239 486 -492 606 -174 83 32 75 -2139 81 l-1935 5 -2 1089
c-2 599 -5 1091 -8 1094 -3 3 -5 28 -5 55 0 34 -5 53 -16 62 -10 7 -19 32 -22
63 -3 32 -9 52 -17 52 -13 0 -25 43 -25 90 0 19 -6 29 -20 33 -15 4 -20 14
-20 41 0 25 -4 36 -15 36 -8 0 -16 10 -17 23 -2 23 -4 52 -7 77 -1 13 -2 13
-11 0 -8 -13 -10 -12 -10 3 0 9 -4 17 -10 17 -5 0 -7 13 -3 31 5 25 2 31 -16
36 -16 4 -21 13 -21 40 0 26 -5 36 -20 40 -14 4 -20 14 -20 34 0 18 -5 28 -12
27 -7 -2 -12 3 -10 10 1 6 -2 12 -8 12 -5 0 -10 11 -10 25 0 18 -4 23 -15 19
-8 -4 -16 -1 -16 5 -1 6 -3 16 -4 21 -1 6 -3 19 -4 30 -1 13 -8 20 -21 20 -15
0 -20 7 -20 25 0 14 -5 25 -11 25 -5 0 -8 4 -4 9 3 6 -1 13 -8 18 -7 4 -16 16
-20 26 -3 9 -13 17 -22 17 -8 0 -15 9 -15 19 0 30 -11 51 -26 51 -8 0 -14 8
-14 19 0 10 -9 21 -20 24 -12 3 -20 14 -20 26 0 12 -5 20 -12 19 -7 -2 -17 14
-22 35 -7 26 -15 37 -28 37 -11 0 -18 7 -18 19 0 11 -9 21 -21 24 -15 4 -20
11 -16 21 5 11 0 16 -13 16 -13 0 -20 7 -20 19 0 11 -9 21 -21 24 -15 4 -20
11 -16 21 4 10 1 16 -9 16 -8 0 -18 8 -21 17 -4 10 -23 32 -42 50 -20 18 -31
33 -26 34 6 0 0 4 -12 9 -13 5 -23 16 -23 24 0 7 -9 16 -20 19 -11 3 -20 11
-20 19 0 7 -10 18 -22 23 -13 6 -22 16 -21 22 1 6 -9 14 -23 17 -17 5 -24 12
-20 21 4 10 -1 15 -15 15 -12 0 -23 8 -26 19 -3 11 -15 21 -27 23 -13 2 -20
10 -20 21 1 12 -5 17 -22 17 -17 0 -24 6 -24 20 0 15 -7 20 -25 20 -18 0 -25
5 -25 20 0 14 -7 20 -21 20 -12 0 -23 8 -26 20 -3 13 -14 20 -29 20 -15 0 -24
6 -24 15 0 9 -9 15 -21 15 -12 0 -23 8 -26 19 -3 11 -17 21 -34 25 -16 3 -29
12 -29 20 0 7 -14 16 -31 20 -22 4 -30 10 -25 21 4 11 -1 15 -17 15 -29 0 -51
15 -43 29 5 7 -4 11 -24 11 -23 0 -33 5 -37 19 -3 14 -15 21 -37 23 -19 2 -31
8 -31 18 0 10 -13 17 -35 20 -26 4 -35 10 -34 23 1 12 -6 17 -26 17 -40 0 -60
9 -54 25 4 10 -5 15 -33 17 -26 2 -38 8 -38 18 0 10 -14 17 -45 20 -36 4 -44
9 -42 23 2 14 -5 17 -43 17 -33 0 -45 4 -45 15 0 8 -9 16 -20 16 -11 1 -24 3
-30 4 -5 1 -19 3 -30 4 -11 0 -20 8 -20 16 0 10 -10 15 -29 15 -40 0 -84 18
-76 30 4 6 -10 10 -34 10 -48 0 -95 16 -86 30 4 6 -15 10 -50 10 -58 0 -100
14 -90 31 4 5 -23 9 -67 9 -75 0 -106 10 -94 29 5 8 -17 11 -73 11 -47 0 -81
4 -81 10 0 7 -197 10 -570 10 -373 0 -570 -3 -570 -10 0 -6 -34 -10 -81 -10
-56 0 -78 -3 -73 -11 12 -19 -19 -29 -94 -29 -49 0 -71 -4 -70 -12 4 -15 -35
-26 -95 -27 -27 -1 -46 -5 -43 -10 6 -9 -67 -31 -104 -31 -12 0 -18 -5 -15
-10 8 -12 -36 -30 -76 -30 -19 0 -29 -5 -29 -15 0 -8 -9 -16 -20 -16 -11 -1
-24 -3 -30 -4 -5 -1 -19 -3 -30 -4 -11 0 -20 -8 -20 -16 0 -11 -12 -15 -45
-15 -38 0 -45 -3 -43 -17 2 -14 -6 -19 -42 -23 -31 -3 -45 -10 -45 -20 0 -10
-12 -16 -38 -18 -28 -2 -37 -7 -33 -17 6 -16 -14 -25 -54 -25 -20 0 -27 -5
-26 -17 1 -13 -8 -19 -34 -23 -22 -3 -35 -10 -35 -20 0 -10 -12 -16 -31 -18
-22 -2 -34 -9 -37 -23 -4 -14 -14 -19 -37 -19 -20 0 -29 -4 -24 -11 8 -14 -14
-29 -43 -29 -16 0 -21 -4 -17 -15 5 -11 -3 -17 -25 -21 -17 -4 -31 -13 -31
-20 0 -8 -13 -17 -29 -20 -17 -4 -31 -14 -34 -25 -3 -11 -14 -19 -26 -19 -12
0 -21 -6 -21 -15 0 -9 -9 -15 -24 -15 -15 0 -26 -7 -29 -20 -3 -12 -14 -20
-26 -20 -14 0 -21 -6 -21 -20 0 -15 -7 -20 -25 -20 -18 0 -25 -5 -25 -20 0
-14 -7 -20 -24 -20 -17 0 -23 -5 -22 -17 0 -11 -7 -19 -20 -21 -12 -2 -24 -12
-27 -23 -3 -11 -14 -19 -26 -19 -14 0 -19 -5 -15 -15 4 -9 -3 -16 -20 -21 -14
-3 -24 -11 -23 -17 1 -6 -8 -16 -20 -22 -13 -5 -23 -16 -23 -23 0 -8 -9 -16
-20 -19 -11 -3 -20 -12 -20 -19 0 -8 -10 -19 -22 -24 -13 -5 -18 -9 -13 -9 6
-1 -6 -16 -26 -34 -19 -18 -38 -40 -42 -50 -3 -9 -13 -17 -21 -17 -10 0 -13
-6 -9 -16 4 -10 -1 -17 -16 -21 -12 -3 -21 -13 -21 -24 0 -12 -7 -19 -20 -19
-13 0 -18 -5 -13 -16 4 -10 -1 -17 -16 -21 -12 -3 -21 -13 -21 -24 0 -12 -7
-19 -18 -19 -13 0 -21 -11 -28 -37 -5 -21 -15 -37 -22 -36 -7 2 -12 -6 -12
-18 0 -12 -8 -23 -20 -26 -11 -3 -20 -14 -20 -24 0 -11 -6 -19 -14 -19 -15 0
-26 -21 -26 -51 0 -11 -7 -19 -16 -19 -9 0 -18 -9 -21 -19 -3 -11 -12 -22 -20
-25 -8 -3 -11 -10 -8 -16 3 -5 1 -10 -4 -10 -6 0 -11 -11 -11 -25 0 -18 -5
-25 -20 -25 -14 0 -20 -7 -21 -22 -3 -48 -5 -53 -21 -52 -13 1 -18 -5 -18 -22
0 -13 -4 -24 -10 -24 -5 0 -6 -8 -3 -17 5 -12 2 -15 -10 -10 -14 5 -17 0 -17
-22 0 -20 -6 -30 -20 -34 -15 -4 -20 -14 -20 -40 0 -27 -5 -36 -21 -40 -18 -5
-21 -11 -16 -36 4 -18 2 -31 -3 -31 -6 0 -10 -8 -10 -17 0 -15 -2 -16 -10 -3
-9 13 -10 13 -11 0 -3 -25 -5 -54 -7 -77 -1 -13 -9 -23 -17 -23 -11 0 -15 -11
-15 -36 0 -27 -5 -37 -20 -41 -14 -4 -20 -14 -20 -33 0 -47 -12 -90 -25 -90
-8 0 -14 -20 -17 -52 -3 -31 -12 -56 -22 -63 -11 -9 -16 -27 -16 -62 0 -28 -6
-58 -15 -69 -11 -15 -15 -16 -16 -4 -1 8 -5 -25 -8 -74 -5 -67 -11 -91 -24
-101 -12 -9 -17 -26 -17 -62 0 -28 -7 -64 -15 -79 -8 -16 -15 -41 -15 -55 0
-47 -21 -54 -174 -57 -101 -2 -148 1 -166 10 -29 16 -41 55 -47 153 -3 48 -9
74 -20 82 -12 9 -18 38 -23 105 -4 51 -8 87 -8 79 -2 -11 -6 -10 -17 5 -8 10
-15 41 -15 68 0 33 -5 53 -16 61 -10 7 -19 32 -22 63 -3 32 -9 52 -17 52 -13
0 -25 43 -25 90 0 19 -6 29 -20 33 -15 4 -20 14 -20 41 0 25 -4 36 -15 36 -8
0 -16 10 -17 23 -2 23 -4 52 -7 77 -1 13 -2 13 -11 0 -8 -13 -10 -12 -10 3 0
9 -4 17 -10 17 -5 0 -7 13 -3 31 5 25 2 31 -16 36 -16 4 -21 13 -21 40 0 26
-5 36 -20 40 -14 4 -20 14 -20 34 0 18 -5 28 -12 26 -7 -1 -12 4 -11 11 2 6
-2 12 -7 12 -6 0 -10 11 -10 25 0 18 -4 23 -15 19 -8 -4 -16 -1 -16 5 -1 6 -3
16 -4 21 -1 6 -3 19 -4 30 -1 13 -8 20 -21 20 -15 0 -20 7 -20 25 0 14 -5 25
-11 25 -5 0 -8 4 -4 9 3 6 -1 13 -8 18 -7 4 -16 16 -20 26 -3 9 -13 17 -22 17
-8 0 -15 9 -15 19 0 30 -11 51 -26 51 -8 0 -14 8 -14 19 0 10 -9 21 -20 24
-12 3 -20 14 -20 26 0 12 -5 20 -12 18 -7 -1 -17 15 -22 36 -7 26 -15 37 -28
37 -11 0 -18 7 -18 19 0 11 -9 21 -21 24 -15 4 -20 11 -16 21 5 11 0 16 -13
16 -13 0 -20 7 -20 19 0 11 -9 21 -21 24 -15 4 -20 11 -16 21 4 10 1 16 -9 16
-8 0 -18 8 -21 17 -4 10 -23 32 -42 50 -20 18 -31 33 -26 34 6 0 0 4 -12 9
-13 5 -23 16 -23 24 0 7 -9 16 -20 19 -11 3 -20 11 -20 19 0 7 -10 18 -22 23
-13 6 -22 16 -21 22 1 6 -9 14 -23 17 -17 5 -24 12 -20 21 4 10 -1 15 -15 15
-12 0 -23 8 -26 19 -3 11 -15 21 -27 23 -13 2 -20 10 -20 21 1 12 -5 17 -22
17 -17 0 -24 6 -24 20 0 15 -7 20 -25 20 -18 0 -25 5 -25 20 0 14 -7 20 -21
20 -12 0 -23 8 -26 20 -3 13 -14 20 -29 20 -15 0 -24 6 -24 15 0 9 -9 15 -21
15 -12 0 -23 8 -26 19 -3 11 -17 21 -34 25 -16 3 -29 12 -29 20 0 7 -14 16
-31 20 -22 4 -30 10 -25 21 4 11 -1 15 -17 15 -29 0 -51 15 -43 29 5 7 -4 11
-24 11 -23 0 -33 5 -37 19 -3 14 -15 21 -37 23 -19 2 -31 8 -31 18 0 10 -13
17 -35 20 -26 4 -35 10 -34 23 1 12 -6 17 -26 17 -40 0 -60 9 -54 25 4 10 -5
15 -33 17 -26 2 -38 8 -38 18 0 10 -14 17 -45 20 -36 4 -44 9 -42 23 2 14 -5
17 -43 17 -33 0 -45 4 -45 15 0 8 -9 16 -20 16 -11 1 -24 3 -30 4 -5 1 -19 3
-30 4 -11 0 -20 8 -20 16 0 10 -10 15 -29 15 -40 0 -84 18 -76 30 4 6 -10 10
-34 10 -48 0 -95 16 -86 30 4 6 -15 10 -50 10 -58 0 -100 14 -90 31 4 5 -23 9
-67 9 -75 0 -106 10 -94 29 5 8 -17 11 -73 11 -47 0 -81 4 -81 10 0 7 -197 10
-570 10 -373 0 -570 -3 -570 -10z m1197 -1102 c13 -12 36 -18 65 -18 28 0 50
-6 58 -15 7 -8 29 -15 49 -15 20 0 45 -7 55 -15 11 -8 30 -15 42 -15 13 0 26
-4 29 -10 3 -5 19 -10 34 -10 16 0 34 -7 41 -15 7 -8 25 -15 40 -15 15 0 33
-7 40 -15 7 -8 17 -15 23 -15 9 0 108 -47 147 -70 8 -5 22 -11 30 -14 8 -4 29
-15 45 -26 17 -10 46 -27 65 -36 19 -10 51 -30 71 -46 20 -15 40 -28 43 -28
15 0 252 -187 335 -265 95 -89 232 -254 259 -313 14 -31 45 -81 69 -110 24
-29 60 -85 79 -125 20 -39 54 -92 75 -117 22 -26 39 -53 39 -61 0 -8 7 -24 15
-35 8 -10 15 -29 15 -40 0 -12 7 -27 15 -34 8 -7 15 -20 15 -30 0 -10 7 -23
15 -30 8 -7 15 -25 15 -41 0 -15 5 -31 10 -34 6 -3 10 -16 10 -28 0 -12 7 -35
15 -51 8 -15 15 -40 15 -55 0 -15 7 -36 15 -47 8 -10 15 -37 15 -59 0 -22 8
-52 18 -65 16 -23 17 -85 20 -877 l3 -853 -2441 0 -2441 0 3 853 c3 792 4 854
21 877 9 13 17 43 17 65 0 22 7 49 15 59 8 11 15 32 15 47 0 15 7 40 15 55 8
16 15 39 15 51 0 12 5 25 10 28 6 3 10 19 10 34 0 16 7 34 15 41 8 7 15 20 15
30 0 10 7 23 15 30 8 7 15 21 15 30 0 10 7 31 14 47 8 15 17 35 20 43 3 8 10
22 15 30 5 8 15 29 22 45 7 17 26 46 41 66 15 20 28 41 28 46 0 19 30 69 55
93 14 13 25 28 25 33 0 23 150 212 275 344 81 87 367 323 391 323 3 0 23 13
43 28 20 16 52 36 71 46 19 9 49 26 65 36 17 11 37 22 45 26 8 3 22 9 30 14
39 23 138 70 147 70 6 0 16 7 23 15 7 8 25 15 40 15 15 0 33 7 40 15 7 8 25
15 41 15 15 0 31 5 34 10 3 6 16 10 29 10 12 0 31 7 42 15 10 8 35 15 55 15
20 0 42 7 49 15 8 10 30 15 61 15 26 0 51 5 54 10 3 6 41 10 83 11 42 1 88 5
102 9 14 5 199 8 411 7 353 -2 389 -4 406 -19z m7050 0 c13 -12 36 -18 65 -18
28 0 50 -6 58 -15 7 -8 29 -15 49 -15 20 0 45 -7 55 -15 11 -8 30 -15 42 -15
13 0 26 -4 29 -10 3 -5 19 -10 34 -10 16 0 34 -7 41 -15 7 -8 25 -15 40 -15
15 0 33 -7 40 -15 7 -8 17 -15 23 -15 9 0 108 -47 147 -70 8 -5 22 -11 30 -14
8 -4 29 -15 45 -26 17 -10 46 -27 65 -36 19 -10 51 -30 71 -46 20 -15 40 -28
43 -28 24 0 310 -236 391 -323 125 -132 275 -321 275 -344 0 -5 11 -20 25 -33
25 -24 55 -74 55 -93 0 -5 13 -26 28 -46 25 -33 40 -59 56 -101 3 -8 10 -22
14 -30 27 -48 42 -84 42 -100 0 -9 7 -23 15 -30 8 -7 15 -20 15 -30 0 -10 7
-23 15 -30 8 -7 15 -25 15 -41 0 -15 5 -31 10 -34 6 -3 10 -16 10 -28 0 -12 7
-35 15 -51 8 -15 15 -40 15 -55 0 -15 7 -36 15 -47 8 -10 15 -37 15 -59 0 -22
8 -52 18 -65 16 -23 17 -84 20 -872 l3 -848 -2168 0 c-1192 0 -2293 -3 -2445
-7 l-278 -6 1 454 c0 250 4 634 8 855 7 351 10 404 24 425 9 13 17 42 17 64 0
22 7 49 15 59 8 11 15 32 15 47 0 15 7 40 15 55 8 16 15 39 15 51 0 12 5 25
10 28 6 3 10 19 10 34 0 16 7 34 15 41 8 7 15 20 15 30 0 10 7 23 15 30 8 7
15 21 15 30 0 10 7 31 14 47 8 15 17 35 20 43 3 8 10 22 15 30 5 8 15 29 22
45 7 17 26 46 41 66 15 20 28 41 28 46 0 19 30 69 55 93 14 13 25 28 25 33 0
23 150 212 275 344 81 87 367 323 391 323 3 0 23 13 43 28 20 16 52 36 71 46
19 9 49 26 65 36 17 11 37 22 45 26 8 3 22 9 30 14 39 23 138 70 147 70 6 0
16 7 23 15 7 8 25 15 40 15 15 0 33 7 40 15 7 8 25 15 41 15 15 0 31 5 34 10
3 6 16 10 29 10 12 0 31 7 42 15 10 8 35 15 55 15 20 0 42 7 49 15 8 9 30 15
60 15 29 0 52 6 60 15 17 20 66 22 546 21 396 -1 434 -2 451 -18z m6533 -6275
c0 -841 -3 -1545 -6 -1566 l-7 -37 -4733 0 -4734 0 0 1560 0 1559 118 4 c64 1
2197 4 4740 5 l4622 2 0 -1527z m-11653 1442 c-3 -43 -2 -75 4 -75 5 0 9 -584
9 -1485 l0 -1485 -4734 0 c-4307 0 -4734 1 -4740 16 -3 9 -6 711 -6 1560 l0
1544 4736 0 4737 0 -6 -75z m13 -10290 l0 -6134 -3652 -3 -3653 -3 -91 21
c-322 77 -574 347 -638 682 -14 75 -16 637 -16 5828 l0 5744 4025 0 4025 0 0
-6135z m10220 367 c0 -5751 0 -5769 -20 -5848 -83 -323 -342 -570 -673 -640
-59 -12 -574 -14 -3718 -14 l-3649 0 0 6135 0 6135 4030 0 4030 0 0 -5768z"/>
</g>
</svg>
