<?xml version="1.0" standalone="no"?>
<!DOCTYPE svg PUBLIC "-//W3C//DTD SVG 20010904//EN"
 "http://www.w3.org/TR/2001/REC-SVG-20010904/DTD/svg10.dtd">
<svg version="1.0" xmlns="http://www.w3.org/2000/svg"
 width="2362.000000pt" height="2362.000000pt" viewBox="0 0 2362.000000 2362.000000"
 preserveAspectRatio="xMidYMid meet">

<g transform="translate(0.000000,2362.000000) scale(0.100000,-0.100000)"
fill="#000000" stroke="none">
<path d="M2972 23604 c-129 -18 -335 -69 -467 -115 -672 -231 -1212 -707
-1525 -1344 -167 -339 -246 -643 -270 -1031 -8 -126 -10 -1253 -7 -3774 3
-3120 5 -3604 18 -3660 l15 -65 -136 -135 c-208 -206 -337 -393 -446 -645 -62
-143 -117 -330 -140 -478 -22 -135 -15 -596 11 -707 99 -435 272 -751 570
-1046 l132 -131 6 -134 c8 -202 49 -365 134 -534 162 -322 470 -572 816 -660
179 -45 332 -51 558 -19 l46 6 87 -178 c140 -287 276 -524 457 -797 55 -82 97
-152 94 -157 -3 -4 -17 -11 -31 -14 -55 -14 -274 -127 -369 -191 -134 -90
-214 -156 -322 -268 -473 -489 -649 -1164 -476 -1832 145 -561 571 -1053 1103
-1275 139 -58 359 -150 508 -211 81 -33 152 -66 158 -72 6 -7 32 -75 59 -152
359 -1051 1048 -2013 1950 -2726 906 -716 2011 -1147 3190 -1243 259 -21 5868
-22 6160 -1 1709 123 3251 752 4530 1850 110 94 454 415 463 432 4 7 48 54 98
105 267 275 570 654 819 1023 143 213 159 248 160 350 0 71 -4 88 -33 147 -82
167 -267 241 -438 177 -83 -31 -132 -83 -255 -268 -276 -412 -539 -732 -899
-1091 -269 -270 -496 -465 -794 -684 -741 -545 -1573 -934 -2469 -1155 -419
-103 -800 -161 -1284 -195 l-63 -4 0 1888 0 1887 63 33 c143 76 327 219 454
353 177 187 315 406 404 642 l37 99 139 18 c570 72 1133 273 1615 576 753 472
1328 1172 1642 1999 105 276 191 625 230 933 33 263 36 509 36 3320 0 1821 4
2837 10 2895 101 901 604 1689 1380 2163 348 212 753 349 1176 397 108 12 217
15 470 13 l329 -3 56 -28 c134 -66 209 -209 188 -361 -10 -78 -44 -140 -111
-201 -73 -67 -117 -82 -288 -95 -263 -19 -463 -91 -658 -237 -232 -173 -384
-408 -460 -713 -15 -59 -17 -453 -22 -4510 -6 -4758 -3 -4470 -50 -4875 -59
-511 -204 -1113 -381 -1585 -84 -225 -91 -254 -85 -324 18 -181 165 -316 346
-316 91 0 164 28 230 87 61 55 81 93 158 299 118 317 221 669 296 1014 72 331
105 547 151 980 22 212 25 692 25 4685 0 2865 4 4332 10 4375 15 96 71 203
144 276 110 109 191 141 392 155 78 5 177 18 219 29 461 118 785 532 785 1004
0 287 -104 538 -307 738 -171 169 -351 259 -587 294 -93 14 -168 16 -461 11
-445 -7 -619 -26 -933 -103 -800 -196 -1510 -667 -2014 -1339 -310 -413 -534
-911 -633 -1410 -75 -378 -68 -70 -75 -3415 -7 -3296 -2 -3067 -65 -3382 -217
-1084 -945 -1983 -1962 -2419 -172 -74 -439 -156 -627 -194 -239 -49 -222 -52
-230 45 -23 263 -139 591 -292 833 -104 162 -298 373 -451 490 -118 90 -288
187 -443 252 -36 15 -66 28 -68 30 -2 1 48 81 111 176 160 243 284 459 418
724 l114 227 45 -6 c160 -23 241 -26 350 -15 312 30 562 148 781 368 179 179
290 375 344 606 20 89 38 288 30 344 -6 43 -4 48 25 69 105 78 285 279 387
432 501 755 429 1766 -175 2445 -67 76 -218 221 -239 230 -2 1 4 38 13 82 13
71 15 234 11 1270 -3 1127 -5 1199 -25 1398 -105 1024 -348 1897 -771 2770
-721 1486 -1864 2694 -3316 3505 -990 553 -2129 894 -3275 980 -88 6 -1204 10
-3185 9 -2515 -1 -3066 -4 -3143 -15z m2160 -669 c8 -9 -46 -262 -118 -550
-324 -1297 -925 -2381 -1706 -3077 -300 -267 -671 -532 -1043 -745 -230 -132
-813 -413 -855 -413 -13 0 -13 2881 0 3015 57 586 381 1122 875 1448 277 182
615 297 935 316 143 9 1904 14 1912 6z m2552 -4 c11 -18 -16 -668 -39 -936
-40 -464 -70 -713 -135 -1100 -188 -1123 -536 -2102 -1014 -2855 -159 -249
-402 -569 -584 -767 -398 -435 -1041 -894 -1697 -1214 -807 -393 -1650 -642
-2620 -774 -99 -14 -183 -25 -187 -25 -5 0 -8 481 -8 1069 l0 1068 112 43
c375 142 882 387 1218 587 472 282 861 577 1209 918 200 197 278 284 466 525
649 833 1093 1843 1369 3110 25 113 50 234 56 270 7 36 13 71 16 78 3 9 195
12 918 12 505 0 917 -4 920 -9z m1511 -12 c264 -17 697 -71 718 -89 11 -10 35
-274 59 -655 25 -402 14 -1721 -17 -1970 -2 -16 -7 -70 -10 -120 -6 -84 -50
-499 -60 -569 -3 -17 -16 -114 -31 -216 -131 -943 -402 -1865 -759 -2581 -202
-405 -362 -658 -646 -1021 -449 -572 -1094 -1072 -1894 -1468 -429 -212 -745
-337 -1212 -480 -621 -190 -1424 -336 -2093 -380 -91 -6 -187 -13 -215 -16
-27 -2 -293 -7 -590 -11 -529 -6 -542 -5 -625 16 -181 45 -323 175 -389 354
l-26 72 -3 387 -3 387 43 5 c24 3 117 15 208 26 1134 140 2287 503 3200 1010
684 378 1312 876 1716 1360 691 827 1155 1781 1461 3005 199 799 326 1779 348
2695 4 140 9 261 11 269 4 12 56 13 327 7 177 -4 394 -12 482 -17z m1880 -380
c83 -28 153 -54 157 -58 3 -3 25 -109 48 -236 303 -1696 938 -3045 1869 -3975
507 -506 1045 -883 1776 -1245 327 -162 679 -310 937 -394 41 -14 69 -29 72
-39 3 -9 14 -107 25 -217 11 -110 23 -225 26 -255 3 -30 8 -268 12 -527 l6
-473 -31 0 c-44 0 -307 36 -557 76 -415 67 -859 172 -1250 296 -926 293 -1715
711 -2375 1258 -168 140 -484 458 -601 605 -291 367 -476 652 -667 1028 -73
146 -84 173 -79 205 3 20 22 127 41 237 79 437 145 985 176 1470 35 541 35
1522 1 2035 -5 74 -13 183 -17 241 l-7 107 144 -44 c79 -24 212 -67 294 -95z
m1180 -529 c587 -333 1059 -688 1539 -1160 838 -822 1457 -1808 1827 -2910 77
-230 160 -524 150 -528 -24 -9 -525 223 -781 362 -520 282 -990 627 -1361 997
-258 258 -539 626 -754 989 -332 561 -602 1247 -781 1990 -44 179 -84 363 -84
381 0 11 104 -40 245 -121z m-1961 -4614 c336 -502 692 -895 1121 -1242 1136
-917 2593 -1492 4320 -1706 l265 -33 0 -281 c0 -311 -6 -366 -54 -469 -65
-138 -177 -242 -319 -294 l-72 -26 -470 0 c-528 0 -622 2 -885 21 -999 70
-1902 265 -2733 588 -624 243 -1231 582 -1717 959 -216 167 -605 528 -596 552
2 7 51 80 109 163 338 488 627 1075 847 1720 40 117 74 211 75 210 2 -2 51
-74 109 -162z m-1456 -2617 c560 -541 1274 -1009 2067 -1354 1101 -479 2362
-740 3748 -774 192 -5 353 -13 357 -18 26 -26 40 -729 20 -1013 -54 -762 -226
-1459 -534 -2159 -26 -58 -95 -200 -155 -315 -359 -700 -839 -1318 -1441
-1857 -392 -351 -883 -681 -1375 -927 -1431 -712 -3060 -859 -4601 -413 -895
259 -1746 733 -2454 1368 -1122 1007 -1849 2369 -2054 3851 -46 330 -56 484
-56 867 0 257 13 591 24 603 2 2 164 7 360 12 1072 28 2024 181 2941 472 1132
359 2139 940 2880 1661 72 69 132 126 134 127 2 0 64 -59 139 -131z m-7685
-1842 c123 -104 293 -196 448 -241 l84 -24 -2 -44 c-1 -23 -7 -106 -13 -183
-5 -77 -9 -299 -7 -493 l3 -352 -40 -11 c-67 -18 -234 -95 -304 -141 -88 -57
-184 -136 -254 -212 l-58 -61 -26 30 c-129 151 -243 395 -279 601 -21 118 -21
342 -1 461 41 232 144 446 308 641 39 45 72 82 74 82 3 0 33 -24 67 -53z
m15341 -170 c242 -372 287 -800 127 -1212 -48 -124 -202 -375 -231 -375 -4 0
-41 34 -81 76 -141 146 -331 266 -513 325 l-68 23 7 245 c4 157 2 338 -6 501
-6 140 -12 270 -13 289 -1 33 0 34 64 52 159 44 314 125 444 231 l81 66 68
-70 c38 -38 92 -106 121 -151z m-14694 -2119 c52 -255 108 -475 176 -695 24
-78 44 -145 44 -148 0 -10 -86 -4 -148 10 -205 48 -383 225 -431 429 -15 63
-15 199 0 262 18 75 77 188 131 248 47 53 166 142 176 131 3 -2 26 -109 52
-237z m13919 201 c296 -198 337 -618 85 -876 -77 -78 -165 -128 -279 -158 -63
-16 -145 -20 -145 -7 0 4 22 80 50 168 65 212 151 560 186 757 15 86 31 157
35 157 4 0 34 -18 68 -41z m-12172 -3601 c526 -573 1207 -1089 1934 -1467 720
-374 1558 -633 2344 -726 72 -8 146 -17 165 -19 19 -3 79 -8 133 -12 53 -4 97
-9 97 -13 0 -3 -7 -60 -15 -126 -33 -272 -7 -541 75 -799 l32 -98 -37 -53
c-53 -78 -171 -195 -265 -264 -260 -190 -614 -277 -916 -226 -158 27 -168 31
-714 257 -146 60 -326 135 -400 165 -74 31 -164 68 -200 83 -36 15 -155 65
-265 110 -110 45 -297 123 -415 172 -226 94 -329 136 -575 238 -82 34 -202 84
-265 110 -63 26 -221 92 -350 145 -129 53 -300 124 -380 157 -80 33 -199 82
-265 110 -293 121 -406 189 -545 328 -82 82 -185 222 -235 320 -38 76 -94 247
-111 339 -21 121 -19 332 5 448 99 477 464 854 932 962 46 11 85 20 86 20 0 1
68 -72 150 -161z m10728 81 c205 -81 420 -251 540 -424 54 -78 134 -234 160
-310 62 -185 82 -419 51 -598 -66 -387 -300 -715 -635 -890 -47 -25 -165 -77
-261 -117 -96 -39 -211 -87 -255 -105 -224 -93 -338 -141 -415 -172 -223 -92
-393 -162 -720 -298 -341 -142 -513 -213 -760 -315 -63 -26 -194 -80 -290
-120 -178 -73 -611 -253 -820 -340 -238 -99 -337 -139 -402 -159 -566 -173
-1193 101 -1453 635 -96 198 -130 359 -123 582 7 181 31 300 62 307 12 2 84 7
161 10 920 40 1954 323 2815 772 711 370 1386 881 1897 1435 81 89 154 167
160 174 18 18 156 -14 288 -67z m-285 -4894 l0 -1745 -572 2 -573 3 0 1504 0
1504 75 32 c41 18 154 65 250 105 526 217 710 293 760 315 30 13 56 24 58 24
1 1 2 -784 2 -1744z m-9430 1267 c159 -66 533 -221 760 -314 80 -33 197 -82
260 -108 372 -154 593 -246 735 -305 451 -188 584 -223 895 -232 271 -8 456
19 701 103 267 91 504 236 716 437 l72 68 63 -62 c514 -503 1266 -682 1943
-462 89 29 147 52 450 178 299 124 421 174 580 240 77 32 198 82 268 111 71
30 133 54 138 54 5 0 8 -528 7 -1357 l-3 -1358 -1615 0 c-1693 0 -1737 1
-2070 45 -1036 138 -1995 576 -2780 1268 -126 112 -379 369 -497 506 -285 332
-564 760 -744 1140 -53 114 -55 121 -36 113 6 -3 77 -32 157 -65z"/>
<path d="M5127 12556 c-145 -60 -217 -166 -217 -321 0 -93 26 -166 81 -228 60
-69 98 -87 297 -142 l184 -50 1 -340 2 -340 28 -57 c34 -69 94 -131 162 -166
44 -24 61 -27 150 -27 122 0 170 19 249 97 89 90 98 127 104 409 l4 236 77
-19 c147 -38 273 -7 365 92 70 74 90 126 90 235 0 72 -4 100 -22 139 -56 124
-130 173 -347 231 -77 20 -178 47 -225 60 -47 13 -161 44 -255 69 -93 25 -255
68 -360 95 -221 59 -279 63 -368 27z"/>
<path d="M11925 12536 c-197 -54 -513 -138 -788 -211 -114 -30 -229 -65 -255
-77 -60 -29 -123 -92 -159 -160 -25 -47 -28 -63 -28 -148 0 -114 18 -162 91
-240 93 -99 217 -131 366 -92 l76 20 4 -237 c5 -284 13 -318 107 -412 97 -97
236 -126 368 -78 88 32 174 124 202 214 19 61 21 91 21 344 0 152 -4 293 -9
314 l-9 37 52 14 c28 8 109 31 179 50 147 40 215 74 263 130 101 117 116 260
42 397 -58 111 -159 172 -288 176 -62 2 -102 -5 -235 -41z"/>
<path d="M7720 11053 c-72 -9 -267 -56 -335 -80 -182 -66 -340 -166 -534 -341
-185 -166 -295 -229 -496 -286 -116 -33 -217 -45 -335 -41 -241 10 -495 105
-658 247 -168 146 -201 171 -264 203 -198 99 -460 84 -644 -36 -86 -56 -185
-165 -228 -250 -56 -112 -70 -195 -63 -383 21 -546 222 -1082 573 -1526 86
-109 314 -337 424 -424 368 -292 793 -476 1280 -553 177 -28 616 -25 799 5
543 89 1034 329 1413 691 l77 73 88 -80 c405 -372 861 -594 1403 -683 181 -30
536 -37 725 -14 722 86 1355 442 1800 1011 347 443 558 1040 559 1579 0 208
-77 378 -232 508 -124 105 -270 152 -447 145 -180 -8 -284 -54 -440 -196 -334
-306 -750 -395 -1163 -250 -151 52 -262 123 -411 261 -296 274 -607 409 -977
424 -291 12 -595 -66 -831 -213 l-72 -45 -56 35 c-142 91 -309 158 -492 197
-96 21 -373 34 -463 22z m354 -710 c62 -15 186 -67 186 -78 0 -3 -9 -23 -19
-43 -11 -21 -35 -84 -55 -141 -127 -364 -109 -762 50 -1100 l44 -94 -27 -30
c-55 -58 -244 -215 -325 -270 -606 -405 -1389 -446 -2028 -105 -514 273 -886
765 -1004 1325 -28 132 -42 243 -32 243 4 0 32 -20 62 -45 189 -154 449 -282
689 -341 613 -149 1238 15 1698 445 45 42 101 91 124 109 84 66 248 129 373
145 56 7 200 -3 264 -20z m1593 17 c95 -13 156 -32 246 -76 89 -44 114 -62
222 -163 189 -176 374 -294 602 -385 599 -238 1305 -132 1798 269 30 25 58 45
61 45 10 0 -2 -111 -21 -205 -28 -135 -72 -276 -126 -401 -262 -607 -797
-1033 -1457 -1161 -121 -23 -162 -26 -347 -26 -224 -1 -314 10 -510 59 -212
54 -454 167 -645 302 -134 94 -515 471 -577 570 -73 117 -105 223 -110 367 -5
133 8 221 50 325 115 285 385 472 704 488 17 1 67 -3 110 -8z"/>
</g>
</svg>
