<?xml version="1.0" standalone="no"?>
<!DOCTYPE svg PUBLIC "-//W3C//DTD SVG 20010904//EN"
 "http://www.w3.org/TR/2001/REC-SVG-20010904/DTD/svg10.dtd">
<svg version="1.0" xmlns="http://www.w3.org/2000/svg"
 width="2362.000000pt" height="2362.000000pt" viewBox="0 0 2362.000000 2362.000000"
 preserveAspectRatio="xMidYMid meet">

<g transform="translate(0.000000,2362.000000) scale(0.100000,-0.100000)"
fill="#000000" stroke="none">
<path d="M2955 23604 c-191 -29 -430 -97 -615 -174 -901 -376 -1529 -1223
-1624 -2188 -21 -209 -20 -7379 0 -7531 l14 -104 -92 -86 c-324 -303 -544
-699 -618 -1116 -20 -109 -21 -145 -17 -410 4 -247 7 -303 25 -375 38 -160
104 -343 172 -479 116 -229 223 -374 410 -554 l117 -113 6 -150 c8 -222 61
-405 171 -592 130 -220 304 -382 531 -496 233 -116 491 -158 739 -121 55 8
102 15 106 15 4 0 31 -51 60 -112 128 -272 331 -629 499 -878 l91 -135 -37
-15 c-147 -56 -369 -183 -498 -284 -88 -68 -258 -239 -330 -331 -204 -262
-339 -579 -389 -918 -20 -132 -20 -388 -1 -524 86 -606 443 -1128 974 -1428
46 -26 212 -100 370 -166 157 -66 329 -138 382 -160 l96 -41 71 -197 c87 -242
135 -357 244 -582 756 -1564 2151 -2721 3818 -3164 369 -98 731 -158 1120
-185 198 -13 5834 -13 6065 0 867 52 1745 256 2540 592 659 279 1252 632 1815
1082 407 325 814 726 1142 1128 205 249 515 683 583 815 90 174 -6 409 -197
479 -59 22 -171 22 -235 0 -88 -29 -131 -72 -239 -233 -114 -170 -200 -292
-293 -413 -993 -1300 -2389 -2204 -3976 -2576 -378 -89 -970 -174 -1209 -174
l-56 0 2 1882 3 1882 84 48 c147 85 253 168 396 312 202 203 316 374 420 629
29 70 54 129 56 132 3 2 84 16 179 30 225 34 370 64 561 119 797 229 1507 704
2029 1358 490 613 765 1280 867 2103 15 116 17 459 23 3140 5 2227 10 3027 19
3075 80 445 180 737 363 1055 125 218 269 405 453 590 365 368 801 622 1290
754 301 81 442 96 880 96 l350 0 57 -27 c32 -15 77 -47 102 -72 65 -67 89
-124 94 -221 6 -112 -21 -180 -99 -256 -69 -69 -140 -99 -232 -99 -169 -1
-374 -49 -532 -125 -220 -106 -405 -284 -537 -515 -39 -69 -98 -235 -119 -335
-18 -87 -19 -230 -19 -4300 0 -2446 -4 -4322 -10 -4476 -18 -518 -76 -936
-202 -1459 -55 -231 -190 -654 -269 -845 -29 -70 -33 -91 -34 -170 0 -77 4
-98 26 -146 50 -107 166 -190 284 -204 111 -14 256 52 320 147 50 73 197 483
290 808 92 320 157 629 209 992 47 323 64 522 76 866 6 168 10 2014 10 4457 0
2840 4 4184 11 4215 6 25 24 72 40 105 84 171 243 269 452 281 203 11 313 37
460 110 302 149 514 436 567 766 18 110 8 331 -19 432 -26 99 -97 249 -158
335 -142 199 -352 345 -588 408 -97 26 -111 27 -435 31 -354 4 -531 -5 -765
-39 -408 -58 -862 -217 -1230 -429 -931 -536 -1565 -1435 -1754 -2490 -53
-293 -51 -169 -51 -3210 0 -1619 -4 -2900 -10 -3000 -11 -214 -29 -345 -76
-560 -168 -773 -613 -1461 -1259 -1946 -420 -316 -967 -544 -1486 -619 l-46
-7 -6 80 c-23 295 -153 643 -338 904 -219 308 -522 549 -854 678 -33 13 -61
24 -63 25 -1 1 40 64 91 141 107 158 219 343 303 495 66 121 218 422 233 462
12 32 2 31 127 12 311 -47 643 35 914 226 166 117 336 326 420 516 70 158 110
351 110 529 l0 82 143 144 c290 290 465 605 552 993 35 157 45 257 45 438 0
570 -229 1090 -652 1480 l-94 88 15 67 c14 59 16 205 16 1202 0 1202 -1 1208
-51 1660 -52 474 -169 1026 -308 1470 -290 920 -701 1715 -1280 2480 -353 466
-861 989 -1314 1353 -874 701 -1812 1190 -2856 1487 -419 120 -838 202 -1341
263 l-180 21 -3160 2 c-2646 2 -3175 0 -3250 -12z m2171 -716 c-14 -91 -110
-492 -161 -678 -382 -1382 -1004 -2395 -1910 -3111 -366 -290 -792 -554 -1241
-769 -80 -39 -147 -70 -149 -70 -2 0 -39 -16 -82 -36 -78 -36 -169 -74 -179
-74 -3 0 -3 681 -1 1513 3 1353 6 1522 20 1607 85 483 310 888 662 1188 235
201 501 339 806 418 198 51 223 52 1268 53 l974 1 -7 -42z m4027 32 c255 -16
745 -75 762 -92 8 -8 42 -430 57 -698 17 -307 17 -1331 0 -1625 -86 -1494
-369 -2729 -856 -3741 -278 -574 -681 -1143 -1068 -1506 -608 -569 -1326
-1006 -2188 -1331 -814 -306 -1724 -495 -2715 -562 -317 -22 -1167 -32 -1272
-16 -152 24 -284 109 -375 243 -88 128 -91 147 -96 580 -3 309 -1 379 10 383
7 2 105 16 218 30 1498 189 2859 694 3922 1455 749 537 1248 1105 1748 1990
63 113 210 416 280 580 412 963 674 2126 765 3395 3 44 8 98 10 120 6 55 24
500 27 667 l3 138 298 0 c164 0 375 -5 470 -10z m2934 -821 c129 -70 192 -105
273 -152 1417 -834 2499 -2089 3113 -3613 110 -271 251 -703 291 -891 l7 -32
-73 28 c-40 16 -108 45 -151 65 -43 20 -80 36 -82 36 -11 0 -311 148 -435 215
-702 376 -1299 852 -1699 1355 -182 227 -304 402 -439 627 -376 625 -674 1418
-858 2283 -8 36 -16 75 -19 88 -7 29 3 28 72 -9z m-1665 -4892 c206 -280 353
-454 567 -667 292 -292 570 -520 901 -739 69 -46 136 -91 150 -101 108 -73
399 -240 611 -348 675 -346 1444 -610 2264 -776 295 -59 736 -127 1005 -154
l75 -7 0 -310 -1 -310 -31 -82 c-17 -45 -45 -101 -61 -125 -71 -102 -181 -185
-297 -221 -69 -22 -80 -22 -580 -21 -673 2 -1121 32 -1675 115 -1427 213
-2730 752 -3682 1521 -144 116 -381 331 -459 417 l-59 64 23 31 c44 58 213
311 262 391 271 449 478 889 658 1405 36 102 70 205 77 229 l12 44 79 -122
c43 -67 116 -173 161 -234z m-1578 -2434 c649 -633 1504 -1155 2491 -1523 379
-142 927 -300 1297 -374 703 -142 1254 -205 1990 -228 377 -12 387 -12 392
-32 15 -62 28 -469 23 -711 -13 -546 -75 -991 -213 -1510 -411 -1541 -1426
-2904 -2794 -3750 -805 -497 -1733 -815 -2654 -910 -407 -42 -912 -44 -1296
-6 -970 97 -1881 405 -2714 917 -350 216 -733 513 -1048 815 -1023 978 -1694
2276 -1892 3659 -55 378 -60 466 -60 925 1 237 5 466 10 510 l9 80 375 12
c206 7 467 19 580 28 1073 83 2069 307 2960 665 858 346 1680 866 2245 1422
83 81 152 148 154 148 2 0 67 -62 145 -137z m-7697 -1835 c119 -103 302 -201
466 -249 l73 -22 -10 -81 c-5 -44 -10 -284 -10 -533 l-1 -451 -55 -15 c-78
-22 -261 -115 -350 -178 -41 -29 -115 -93 -164 -142 l-88 -89 -24 28 c-135
161 -246 409 -280 624 -22 136 -15 376 14 500 41 175 127 359 231 495 55 72
131 155 142 155 4 0 29 -19 56 -42z m15233 -27 c405 -452 441 -1138 85 -1636
-31 -44 -61 -84 -65 -89 -5 -4 -49 32 -98 81 -144 144 -324 257 -499 313 l-72
23 6 291 c5 255 -7 665 -22 748 -5 23 -1 27 43 38 152 38 378 156 487 254 28
25 55 45 62 46 6 0 39 -31 73 -69z m-12910 -5583 c284 -318 652 -654 1020
-929 1018 -763 2215 -1231 3489 -1364 79 -8 165 -15 192 -15 27 0 49 -1 49 -2
0 -2 -7 -52 -15 -113 -36 -268 -7 -588 75 -831 l30 -87 -50 -67 c-178 -240
-475 -418 -788 -471 -31 -5 -122 -9 -201 -9 -242 1 -293 15 -821 236 -218 91
-417 173 -530 219 -58 24 -159 65 -225 93 -214 89 -357 149 -530 220 -93 38
-215 89 -270 112 -55 23 -147 61 -205 85 -58 23 -161 66 -230 95 -69 29 -188
78 -265 110 -334 138 -578 239 -727 301 -65 27 -171 71 -235 97 -258 107 -361
169 -496 301 -158 153 -257 315 -321 521 -43 139 -56 220 -56 366 -1 495 312
952 775 1134 106 41 200 68 245 69 20 1 41 -16 90 -71z m10730 25 c217 -73
383 -182 523 -340 345 -391 413 -930 176 -1395 -43 -84 -124 -194 -205 -278
-140 -145 -272 -228 -529 -333 -135 -55 -549 -226 -960 -397 -82 -34 -253
-105 -380 -157 -264 -109 -399 -165 -610 -253 -267 -111 -388 -161 -495 -205
-111 -45 -446 -184 -640 -265 -598 -250 -654 -270 -845 -291 -352 -39 -730 97
-990 356 -155 156 -277 378 -326 595 -31 135 -35 340 -11 479 11 62 25 118 31
124 5 5 81 14 168 18 859 45 1689 250 2508 620 829 374 1655 973 2260 1639
l120 132 50 -7 c28 -3 97 -22 155 -42z m-9400 -3753 c96 -40 200 -83 230 -95
30 -12 123 -51 205 -85 83 -34 202 -84 265 -110 293 -121 424 -176 535 -222
122 -50 229 -95 455 -187 381 -157 694 -199 1069 -145 393 57 763 237 1050
510 l88 83 39 -40 c64 -66 208 -185 302 -247 387 -260 859 -374 1307 -317 225
29 381 76 707 214 82 34 419 174 743 308 61 25 162 67 227 94 64 27 118 49
120 49 1 0 3 -610 3 -1355 l0 -1355 -1615 0 c-1018 0 -1667 4 -1755 10 -689
51 -1356 234 -1968 540 -179 90 -208 106 -417 234 -693 423 -1304 1046 -1733
1769 -66 111 -267 496 -267 510 0 6 93 -31 410 -163z"/>
<path d="M5172 12574 c-72 -19 -107 -39 -162 -90 -69 -65 -103 -147 -104 -249
-1 -69 3 -89 30 -145 38 -78 92 -135 159 -166 42 -20 206 -68 343 -101 l33 -8
2 -345 c2 -338 2 -346 25 -392 34 -69 96 -134 155 -163 187 -91 396 -18 484
170 28 60 28 61 31 298 2 153 7 237 14 237 5 0 38 -7 72 -16 220 -58 421 69
455 287 22 137 -60 293 -188 359 -22 11 -125 42 -228 69 -103 28 -282 75 -398
106 -705 189 -631 174 -723 149z"/>
<path d="M12095 12583 c-11 -3 -111 -29 -222 -59 -112 -30 -296 -79 -410 -110
-115 -30 -283 -75 -375 -99 -91 -24 -185 -53 -208 -65 -60 -31 -122 -91 -156
-152 -27 -49 -29 -61 -29 -158 0 -90 3 -112 23 -153 79 -158 259 -232 444
-179 l66 19 4 -246 3 -246 28 -55 c88 -171 276 -247 449 -181 75 29 149 99
185 176 l28 60 2 340 1 340 54 13 c142 34 307 86 344 107 56 33 111 96 142
164 21 45 26 71 27 136 0 71 -4 88 -33 147 -57 117 -166 191 -295 202 -28 3
-61 2 -72 -1z"/>
<path d="M7768 11060 c-211 -20 -408 -80 -589 -181 -119 -66 -209 -133 -331
-246 -53 -50 -128 -112 -167 -137 -329 -219 -755 -248 -1106 -77 -106 52 -207
124 -336 239 -127 113 -261 165 -429 166 -271 1 -510 -158 -608 -404 -58 -144
-63 -287 -23 -566 71 -480 235 -869 534 -1269 78 -103 369 -394 472 -472 502
-376 1040 -558 1645 -557 420 1 805 90 1176 274 260 129 463 270 651 453 l72
70 91 -86 c388 -370 907 -612 1485 -694 170 -24 489 -24 660 0 527 74 949 253
1347 569 303 241 577 588 743 942 155 330 245 710 248 1046 l2 175 -33 85
c-65 171 -172 290 -327 365 -113 54 -177 69 -290 69 -102 0 -188 -20 -283 -64
-72 -33 -115 -65 -218 -160 -294 -272 -719 -362 -1109 -235 -159 52 -284 130
-437 272 -232 216 -444 330 -738 397 -175 40 -428 38 -610 -4 -177 -42 -372
-123 -488 -202 l-42 -29 -33 24 c-220 163 -622 265 -929 237z"/>
</g>
</svg>
