<?xml version="1.0" standalone="no"?>
<!DOCTYPE svg PUBLIC "-//W3C//DTD SVG 20010904//EN"
 "http://www.w3.org/TR/2001/REC-SVG-20010904/DTD/svg10.dtd">
<svg version="1.0" xmlns="http://www.w3.org/2000/svg"
 width="2362.000000pt" height="2362.000000pt" viewBox="0 0 2362.000000 2362.000000"
 preserveAspectRatio="xMidYMid meet">

<g transform="translate(0.000000,2362.000000) scale(0.100000,-0.100000)"
fill="#000000" stroke="none">
<path d="M11735 23110 c-33 -4 -80 -13 -105 -20 -51 -14 -183 -78 -188 -91 -2
-5 -10 -9 -18 -9 -8 0 -14 -5 -14 -10 0 -6 -8 -14 -17 -17 -9 -4 -30 -22 -46
-40 -16 -18 -32 -33 -36 -33 -4 0 -68 -62 -142 -137 -194 -198 -206 -212 -213
-228 -3 -8 -10 -15 -16 -15 -5 0 -10 -7 -10 -15 0 -9 -7 -18 -15 -21 -8 -4
-15 -12 -15 -20 0 -8 -4 -14 -9 -14 -5 0 -13 -10 -17 -22 -4 -13 -10 -25 -14
-28 -4 -3 -41 -61 -82 -130 -408 -685 -614 -1026 -620 -1028 -4 -2 -8 -9 -8
-16 0 -7 -9 -23 -20 -36 -11 -13 -20 -29 -20 -37 0 -7 -4 -13 -9 -13 -5 0 -13
-10 -17 -22 -4 -13 -10 -25 -14 -28 -4 -3 -61 -95 -127 -205 -66 -110 -195
-326 -288 -480 -92 -154 -171 -281 -176 -283 -5 -2 -9 -9 -9 -16 0 -7 -9 -23
-20 -36 -11 -13 -20 -29 -20 -36 0 -7 -4 -14 -8 -16 -5 -1 -28 -37 -52 -78
-23 -41 -133 -226 -244 -410 -111 -184 -249 -414 -306 -510 -57 -96 -107 -177
-110 -180 -4 -3 -10 -15 -14 -27 -4 -13 -12 -23 -17 -23 -5 0 -9 -7 -9 -15 0
-8 -4 -15 -9 -15 -5 0 -13 -10 -17 -22 -4 -13 -10 -25 -13 -28 -6 -4 -531
-880 -654 -1090 -12 -19 -24 -37 -28 -40 -3 -3 -9 -15 -13 -27 -4 -13 -11 -23
-16 -23 -4 0 -11 -11 -14 -25 -4 -14 -11 -25 -16 -25 -6 0 -10 -7 -10 -15 0
-8 -4 -15 -9 -15 -5 0 -13 -10 -17 -22 -4 -13 -10 -25 -13 -28 -7 -5 -262
-425 -304 -500 -97 -174 -192 -321 -211 -325 -12 -3 -115 -26 -231 -51 -512
-110 -774 -168 -830 -182 -54 -14 -312 -17 -2405 -22 -2626 -6 -2378 2 -2540
-78 -63 -31 -101 -62 -244 -202 -92 -91 -188 -193 -212 -226 -42 -59 -100
-174 -88 -174 4 0 1 -7 -6 -15 -7 -9 -10 -18 -7 -22 4 -3 2 -12 -4 -19 -6 -8
-9 -20 -6 -28 3 -8 3 -16 0 -19 -2 -3 -4 -89 -3 -190 l1 -185 -38 -12 c-51
-17 -177 -80 -181 -91 -2 -5 -10 -9 -18 -9 -8 0 -14 -4 -14 -10 0 -5 -6 -10
-13 -10 -7 0 -18 -9 -25 -20 -7 -11 -16 -20 -20 -20 -5 0 -50 -41 -100 -91
-89 -88 -92 -93 -92 -136 0 -36 -5 -49 -25 -64 -13 -11 -39 -50 -57 -87 -33
-66 -33 -67 -36 -242 -3 -149 0 -189 18 -269 25 -111 44 -157 76 -178 21 -13
24 -23 24 -73 l0 -57 273 -269 c150 -148 735 -716 1300 -1263 l1026 -995 3
-1320 c3 -1248 4 -1324 21 -1376 19 -55 55 -136 70 -155 4 -5 19 -26 33 -45
26 -36 353 -370 363 -370 3 0 16 -11 28 -23 24 -26 122 -76 162 -83 14 -3 44
-9 66 -14 22 -5 357 -10 753 -10 391 0 712 -2 712 -4 0 -2 -47 -336 -105 -742
-58 -407 -103 -744 -100 -751 2 -7 0 -15 -6 -19 -6 -3 -9 -18 -8 -32 1 -15 -2
-35 -6 -45 -4 -9 -5 -26 -2 -37 3 -11 1 -22 -3 -25 -4 -3 -6 -14 -3 -25 3 -11
2 -28 -2 -37 -5 -10 -7 -23 -6 -29 1 -7 -35 -268 -79 -580 -108 -755 -238
-1676 -300 -2112 -28 -194 -48 -357 -45 -362 3 -5 0 -12 -6 -15 -5 -4 -9 -21
-8 -39 1 -17 -2 -39 -6 -49 -4 -9 -5 -26 -2 -37 3 -11 1 -23 -4 -26 -5 -3 -7
-10 -3 -15 3 -5 -4 -71 -15 -147 -126 -838 -164 -1140 -165 -1287 0 -89 5
-174 13 -210 17 -76 69 -215 82 -215 5 0 9 -7 9 -15 0 -8 5 -15 10 -15 6 0 10
-7 10 -15 0 -9 7 -18 15 -21 8 -4 15 -11 15 -16 0 -10 280 -288 290 -288 3 0
12 -9 20 -20 8 -11 20 -20 27 -20 7 0 13 -4 13 -9 0 -12 106 -58 165 -71 103
-23 271 -12 402 26 84 24 360 156 1258 599 237 117 448 220 470 230 22 10 254
124 515 252 261 128 579 284 705 345 127 62 339 168 473 235 133 68 243 122
245 121 3 -4 420 200 682 333 127 65 254 127 284 139 29 11 243 115 475 231
231 116 428 212 437 214 9 2 224 107 478 234 253 127 461 229 461 226 0 -3 15
4 33 14 31 17 33 17 65 0 17 -10 32 -17 32 -14 0 3 203 -97 450 -221 410 -205
480 -238 502 -243 4 -1 192 -94 418 -207 226 -113 447 -221 493 -240 45 -19
154 -73 242 -118 88 -46 288 -145 445 -221 157 -75 470 -228 695 -340 226
-112 448 -221 495 -243 47 -22 285 -138 530 -259 245 -121 463 -228 485 -238
22 -10 234 -114 470 -231 237 -117 433 -213 437 -214 4 -1 99 -46 210 -102
351 -173 557 -268 631 -288 130 -36 317 -42 410 -15 45 14 137 58 137 66 0 5
6 9 13 9 7 0 19 9 27 20 8 11 17 20 21 20 13 0 319 312 319 325 0 8 5 15 10
15 6 0 10 7 10 15 0 8 4 15 9 15 13 0 66 139 82 215 7 34 13 123 13 205 0 130
-10 212 -92 788 -51 354 -90 647 -87 652 3 5 1 11 -4 14 -5 3 -7 15 -4 26 3
11 2 28 -2 37 -4 10 -7 30 -6 45 1 14 -2 29 -8 32 -6 4 -8 13 -5 21 3 7 -8
107 -25 222 -17 114 -105 735 -196 1378 -91 644 -175 1232 -186 1307 -11 76
-18 142 -15 147 4 5 1 13 -4 16 -6 4 -11 19 -10 33 1 15 1 32 0 37 -1 6 -1 22
0 37 1 15 -2 33 -6 40 -5 7 -7 25 -5 40 1 14 -3 29 -9 33 -5 3 -8 10 -5 15 3
5 -15 150 -39 322 -24 172 -73 510 -107 751 -34 240 -59 440 -56 443 3 3 13 7
24 9 10 2 19 4 21 5 1 2 5 3 10 4 4 0 39 16 77 35 60 29 97 61 266 230 153
153 205 211 234 264 20 37 38 75 40 85 2 9 4 18 5 20 2 1 3 6 4 11 0 5 4 12 8
16 4 4 4 13 2 20 -3 7 -1 16 5 19 6 4 8 13 4 21 -3 8 -2 22 1 32 4 9 6 270 6
580 l0 564 197 194 c109 107 201 195 204 195 3 0 43 38 88 85 78 79 86 85 125
85 73 0 378 38 516 65 490 94 919 271 1243 512 134 100 605 571 704 704 228
305 397 697 472 1089 26 139 53 344 51 395 -1 22 -1 45 0 50 1 6 1 35 0 65
l-1 55 250 250 251 249 0 53 c0 45 5 60 34 97 40 52 48 77 76 206 24 115 25
157 4 301 -16 117 -49 204 -93 243 -16 14 -21 31 -21 66 0 46 -2 50 -87 134
-48 47 -90 86 -95 86 -4 0 -13 9 -20 20 -7 11 -17 20 -23 20 -6 0 -18 9 -28
20 -9 11 -24 20 -32 20 -8 0 -15 4 -15 9 0 11 -135 72 -220 100 -84 27 -290
72 -300 66 -5 -3 -11 -1 -15 4 -3 6 -33 13 -66 17 -32 4 -62 10 -65 15 -2 4
-11 6 -19 3 -8 -3 -20 -2 -27 2 -6 4 -21 8 -32 9 -12 1 -50 8 -86 15 l-65 13
-190 186 c-253 249 -429 378 -701 515 -113 56 -328 141 -380 150 -16 2 -30 5
-31 6 -2 2 -6 3 -10 4 -5 1 -14 5 -20 9 -7 5 -17 6 -22 2 -5 -3 -12 -1 -16 5
-4 6 -10 8 -13 6 -4 -2 -52 7 -107 20 -138 33 -302 61 -485 80 -135 15 -325
18 -1445 21 l-1290 4 -205 44 c-113 25 -371 81 -575 125 -203 44 -379 82 -391
85 -19 4 -114 151 -211 325 -56 99 -298 495 -305 498 -4 2 -8 10 -8 18 0 8 -4
14 -10 14 -5 0 -10 6 -10 13 0 8 -9 24 -20 37 -11 13 -20 29 -20 37 0 7 -4 13
-9 13 -5 0 -13 10 -17 23 -4 12 -10 24 -14 27 -4 3 -26 39 -50 80 -24 41 -127
215 -229 385 -103 171 -234 389 -291 485 -57 96 -107 177 -110 180 -4 3 -10
15 -14 28 -4 12 -12 22 -17 22 -5 0 -9 7 -9 15 0 8 -4 15 -9 15 -5 0 -13 10
-17 23 -4 12 -10 24 -13 27 -6 4 -575 953 -684 1140 -12 19 -24 37 -28 40 -3
3 -9 15 -13 28 -4 12 -12 22 -17 22 -5 0 -9 6 -9 14 0 8 -4 16 -8 18 -4 2 -86
134 -182 293 -95 160 -227 380 -293 490 -66 110 -123 202 -127 205 -4 3 -10
15 -14 28 -4 12 -12 22 -17 22 -5 0 -9 6 -9 13 0 8 -9 24 -20 37 -11 13 -20
29 -20 36 0 7 -4 14 -8 16 -4 2 -129 206 -276 453 -385 644 -418 699 -426 705
-4 3 -10 15 -14 28 -4 12 -12 22 -17 22 -5 0 -9 6 -9 14 0 8 -7 16 -15 20 -8
3 -15 12 -15 20 0 7 -7 16 -15 20 -8 3 -15 9 -15 15 0 10 -13 23 -209 224 -74
75 -138 137 -142 137 -4 0 -20 15 -36 33 -16 18 -37 36 -46 40 -9 3 -17 11
-17 17 0 5 -6 10 -14 10 -8 0 -16 4 -18 9 -1 5 -35 25 -74 44 -115 58 -236 80
-359 67z m229 -517 c86 -21 210 -86 239 -125 22 -29 99 -157 380 -628 45 -74
85 -136 89 -138 4 -2 8 -9 8 -16 0 -7 9 -23 20 -36 11 -13 20 -29 20 -37 0 -7
4 -13 9 -13 5 0 13 -10 17 -22 4 -13 10 -25 14 -28 4 -3 57 -88 118 -190 120
-202 501 -836 548 -913 16 -27 35 -60 43 -75 8 -15 20 -33 28 -40 7 -7 13 -19
13 -27 0 -7 4 -15 9 -17 5 -1 140 -223 302 -493 161 -269 297 -491 301 -493 4
-2 8 -9 8 -16 0 -7 9 -23 20 -36 11 -13 20 -29 20 -37 0 -7 5 -13 10 -13 6 0
10 -7 10 -15 0 -8 4 -15 9 -15 5 0 13 -10 17 -22 4 -13 10 -25 14 -28 3 -3 40
-61 80 -130 41 -69 158 -264 260 -435 102 -170 219 -366 260 -435 40 -69 77
-126 82 -128 4 -2 8 -9 8 -16 0 -7 9 -23 20 -36 11 -13 20 -29 20 -37 0 -7 5
-13 10 -13 6 0 10 -6 10 -14 0 -8 4 -16 8 -18 5 -1 140 -223 301 -493 161
-269 297 -491 302 -493 5 -2 9 -9 9 -16 0 -7 9 -23 20 -36 11 -13 20 -29 20
-37 0 -7 4 -13 9 -13 5 0 14 -12 20 -27 6 -16 60 -109 120 -208 103 -166 120
-188 242 -311 l132 -132 96 -21 c152 -33 676 -147 905 -196 115 -25 211 -43
214 -40 3 3 11 0 18 -5 6 -6 16 -10 20 -9 5 1 16 -1 24 -4 8 -4 625 -8 1370
-10 1460 -4 1385 -1 1698 -57 355 -63 782 -222 997 -370 24 -17 46 -30 50 -30
3 0 18 -11 32 -24 14 -13 37 -30 52 -38 14 -7 32 -21 39 -30 7 -10 17 -18 23
-18 11 0 129 -117 129 -128 0 -4 64 -71 143 -149 l142 -141 225 -47 c424 -88
543 -121 671 -186 54 -27 57 -30 77 -94 27 -81 30 -227 6 -319 -17 -67 -91
-226 -105 -226 -5 0 -9 -7 -9 -15 0 -8 -4 -15 -8 -15 -4 0 -16 -14 -27 -32
-10 -17 -143 -156 -295 -307 l-277 -276 -7 -120 c-26 -454 -119 -822 -298
-1177 -166 -329 -300 -493 -527 -647 -147 -100 -478 -272 -550 -286 -9 -2 -17
-4 -18 -5 -2 -2 -7 -4 -13 -5 -5 -1 -12 -4 -15 -5 -3 -1 -9 -4 -15 -5 -5 -1
-11 -3 -12 -5 -2 -1 -10 -3 -18 -5 -8 -1 -52 -14 -98 -29 -120 -38 -300 -82
-432 -106 -134 -24 -426 -60 -489 -60 -43 0 -46 -3 -239 -187 -107 -104 -348
-338 -534 -522 l-338 -333 0 -573 c0 -533 -1 -577 -19 -648 -28 -107 -54 -153
-100 -177 -75 -38 -180 -60 -286 -60 l-100 0 -122 -122 c-75 -75 -123 -130
-123 -143 0 -17 111 -808 321 -2280 33 -230 57 -425 55 -432 -3 -7 -1 -15 5
-19 6 -3 9 -18 8 -32 -1 -15 2 -35 6 -45 4 -9 5 -26 2 -37 -3 -11 -1 -23 4
-26 5 -3 7 -9 4 -14 -5 -8 67 -524 361 -2590 35 -250 62 -460 60 -467 -3 -7
-1 -15 5 -19 6 -3 9 -18 8 -32 -1 -15 2 -35 6 -45 4 -9 5 -26 2 -37 -3 -11 -1
-22 4 -25 4 -3 6 -12 3 -19 -3 -8 7 -95 22 -193 32 -203 38 -433 15 -538 -7
-33 -15 -67 -16 -75 -2 -8 -4 -16 -5 -17 -2 -2 -3 -6 -4 -10 -1 -5 -7 -18 -14
-29 -6 -12 -9 -24 -5 -28 8 -8 -52 -33 -114 -47 -70 -16 -226 -13 -318 6 -106
22 -217 66 -405 160 -85 43 -266 131 -402 196 -136 64 -300 145 -365 179 -65
33 -269 133 -453 221 -184 88 -395 192 -469 230 -74 39 -281 140 -460 225
-179 86 -389 189 -466 229 -77 40 -288 144 -470 230 -181 87 -388 188 -460
226 -71 37 -283 140 -469 229 -187 89 -380 184 -430 211 -50 26 -231 115 -401
197 -171 82 -463 224 -650 317 -524 258 -724 355 -730 355 -6 0 -204 -96 -720
-350 -181 -90 -473 -231 -647 -315 -174 -84 -356 -174 -405 -200 -48 -26 -243
-121 -433 -212 -190 -90 -400 -193 -466 -228 -67 -35 -274 -136 -460 -225
-187 -89 -402 -195 -479 -235 -77 -40 -284 -142 -460 -225 -176 -84 -383 -186
-460 -226 -77 -40 -288 -143 -469 -229 -182 -87 -371 -179 -420 -206 -50 -26
-230 -115 -401 -197 -170 -82 -380 -183 -465 -225 -160 -79 -266 -118 -370
-137 -77 -14 -232 -14 -294 0 -60 13 -121 38 -113 46 4 4 1 16 -5 28 -7 11
-13 24 -14 29 -1 4 -2 8 -4 10 -1 1 -3 9 -5 17 -1 8 -9 42 -16 75 -23 103 -17
334 15 543 15 100 24 186 21 191 -3 5 -1 12 4 15 5 3 7 15 4 26 -3 11 -2 28 2
37 4 10 7 30 6 45 -1 14 2 29 8 32 6 4 8 12 5 19 -2 7 34 285 81 617 87 610
217 1525 300 2113 25 175 43 322 40 327 -3 5 -1 11 4 14 5 3 7 15 4 26 -3 11
-2 28 2 37 4 10 7 32 6 49 -1 18 3 35 8 39 6 3 9 10 6 15 -3 5 17 168 45 362
27 194 102 718 165 1163 63 446 127 895 142 998 l27 188 -129 129 -130 130
-845 0 c-902 0 -901 0 -1013 50 -46 21 -75 51 -82 87 -2 10 -4 19 -5 21 -2 1
-4 7 -5 12 -1 6 -4 12 -5 15 -1 3 -3 9 -4 14 0 5 -4 12 -8 16 -4 4 -4 13 -2
20 3 7 1 16 -5 19 -7 4 -10 443 -11 1328 l0 1322 -28 30 c-15 16 -456 445
-979 953 -524 508 -953 928 -953 934 0 5 -6 9 -13 9 -8 0 -81 70 -164 155 -83
85 -154 155 -158 155 -12 0 -374 370 -392 401 -10 16 -21 29 -25 29 -4 0 -8 7
-8 15 0 8 -4 15 -9 15 -14 0 -88 159 -105 226 -24 92 -21 238 6 319 21 66 22
67 87 99 75 38 226 88 319 107 64 12 65 13 188 137 l124 125 0 271 c0 291 6
342 54 450 22 49 31 59 72 76 26 12 54 22 63 23 9 1 22 6 29 11 7 4 19 5 27 2
8 -3 17 -1 20 4 4 6 864 10 2335 10 1471 0 2331 4 2335 10 3 5 12 7 19 4 8 -3
17 0 21 5 3 6 10 9 15 6 4 -3 113 18 242 45 311 68 760 165 878 191 l95 21
133 131 c125 124 138 142 240 309 59 98 113 190 121 205 8 15 18 30 23 31 4 2
8 9 8 16 0 7 9 23 20 36 11 13 20 29 20 36 0 7 4 14 9 16 5 2 141 224 302 493
161 270 296 492 301 493 4 2 8 10 8 18 0 8 5 14 10 14 6 0 10 6 10 13 0 8 9
24 20 37 11 13 20 29 20 36 0 7 4 14 8 16 5 2 42 59 82 128 41 69 158 265 260
435 102 171 219 366 260 435 40 69 77 127 80 130 4 3 10 15 14 28 4 12 11 22
16 22 4 0 11 11 14 25 4 14 11 25 16 25 6 0 10 7 10 15 0 8 4 15 9 15 5 0 13
10 17 23 4 12 10 24 13 27 4 3 139 226 300 495 161 270 297 492 302 493 5 2 9
10 9 17 0 8 6 20 13 27 8 7 20 25 28 40 8 15 27 48 43 75 120 198 452 752 545
908 63 105 117 192 121 195 4 3 10 15 14 28 4 12 12 22 17 22 5 0 9 6 9 13 0
8 9 24 20 37 11 13 20 29 20 36 0 7 4 14 8 16 4 2 44 64 89 138 44 74 142 239
218 365 75 127 148 245 162 263 26 35 147 101 223 122 105 29 224 30 334 3z"/>
<path d="M11355 15774 c-27 -2 -111 -11 -185 -20 -74 -9 -151 -17 -170 -19
-19 -2 -43 -6 -52 -10 -10 -4 -25 -5 -33 -2 -8 4 -17 2 -20 -3 -3 -5 -12 -7
-20 -3 -8 3 -23 2 -32 -2 -10 -4 -34 -9 -54 -11 -95 -10 -433 -110 -624 -186
-202 -79 -494 -244 -680 -384 -203 -151 -548 -488 -738 -719 -131 -159 -234
-321 -341 -533 -218 -434 -334 -879 -376 -1442 -13 -174 -13 -556 0 -735 61
-836 318 -1502 791 -2050 121 -140 505 -517 619 -607 101 -80 245 -178 320
-219 25 -13 47 -27 50 -30 10 -14 241 -120 354 -164 311 -120 787 -225 1085
-240 46 -3 86 -7 89 -10 8 -7 888 -6 896 2 3 4 28 6 55 4 27 -1 52 2 55 7 3 5
16 7 29 5 35 -7 369 51 527 91 243 61 445 138 690 262 159 80 356 202 373 230
4 8 14 14 21 14 8 0 16 7 20 15 3 8 11 15 18 15 7 0 19 9 26 20 7 11 18 20 25
20 7 0 18 9 25 20 7 11 17 20 23 20 20 0 554 544 624 635 37 50 74 95 82 101
7 6 13 16 13 23 0 6 5 11 10 11 6 0 10 7 10 15 0 8 5 15 10 15 6 0 10 7 10 15
0 8 5 15 10 15 6 0 10 7 10 15 0 8 5 15 10 15 6 0 10 7 10 15 0 8 5 15 10 15
6 0 10 7 10 15 0 8 4 15 8 15 4 0 38 55 74 123 70 127 141 277 132 277 -2 0 1
10 8 23 6 12 13 27 14 32 1 6 21 62 43 125 135 386 197 736 223 1268 29 603
-45 1174 -218 1667 -20 55 -36 105 -38 110 -1 6 -5 16 -9 22 -5 7 -10 22 -12
33 -6 29 -137 300 -145 300 -5 0 -10 10 -14 23 -3 13 -15 34 -26 47 -11 13
-20 29 -20 37 0 7 -4 13 -10 13 -5 0 -10 6 -10 14 0 8 -4 16 -8 18 -5 2 -32
38 -61 81 -164 244 -564 661 -835 869 -50 38 -100 77 -111 87 -12 9 -27 20
-35 24 -8 4 -28 16 -45 27 -16 11 -38 23 -47 26 -10 4 -18 10 -18 14 0 11
-305 164 -425 213 -217 88 -617 206 -652 193 -7 -3 -15 0 -19 5 -3 6 -15 9
-25 6 -10 -3 -22 -1 -25 5 -3 5 -16 8 -27 7 -36 -4 -147 12 -153 22 -3 5 -9 7
-13 4 -5 -2 -69 2 -142 11 -128 15 -816 28 -944 18z m610 -1919 c245 -44 492
-165 648 -317 337 -330 481 -994 402 -1843 -74 -786 -317 -1186 -821 -1354
-418 -139 -875 -80 -1209 157 -234 165 -394 440 -479 825 -102 459 -96 1126
14 1552 123 474 328 740 691 897 100 43 245 83 354 97 94 13 289 6 400 -14z"/>
<path d="M1497 15552 l-127 -127 0 -820 0 -820 128 -128 127 -127 928 0 927 0
0 -2392 0 -2393 132 -132 131 -133 1022 0 1021 0 132 132 132 132 0 2393 0
2393 923 0 922 0 128 128 127 127 0 820 0 820 -128 128 -127 127 -3135 0
-3135 0 -128 -128z"/>
<path d="M16198 15553 l-128 -128 0 -3345 0 -3345 128 -128 127 -127 1025 0
1025 0 128 128 127 127 0 1118 0 1117 458 0 c831 0 1159 34 1536 158 78 25
144 47 149 48 4 1 8 2 10 4 1 1 10 3 20 5 38 7 245 115 337 175 140 93 214
157 426 372 218 221 247 255 336 393 117 182 217 431 272 675 78 351 78 792 1
1157 -49 231 -173 524 -296 698 -93 131 -504 541 -629 627 -302 208 -628 319
-1110 379 -69 9 -599 13 -1955 16 l-1860 4 -127 -128z m2980 -1593 c138 -15
289 -53 379 -96 105 -50 184 -130 240 -245 98 -199 104 -377 19 -554 -85 -178
-196 -265 -418 -329 -160 -46 -271 -58 -605 -63 l-313 -5 0 651 0 651 300 0
c166 0 344 -5 398 -10z"/>
</g>
</svg>
