<?xml version="1.0" standalone="no"?>
<!DOCTYPE svg PUBLIC "-//W3C//DTD SVG 20010904//EN"
 "http://www.w3.org/TR/2001/REC-SVG-20010904/DTD/svg10.dtd">
<svg version="1.0" xmlns="http://www.w3.org/2000/svg"
 width="2362.000000pt" height="2362.000000pt" viewBox="0 0 2362.000000 2362.000000"
 preserveAspectRatio="xMidYMid meet">

<g transform="translate(0.000000,2362.000000) scale(0.100000,-0.100000)"
fill="#000000" stroke="none">
<path d="M11640 23066 c-202 -61 -373 -200 -515 -421 -29 -44 -883 -1457
-1900 -3140 -1016 -1683 -1851 -3064 -1855 -3068 -4 -4 -301 -72 -661 -150
l-654 -142 -2395 -5 -2395 -5 -65 -23 c-193 -70 -342 -222 -407 -416 -27 -80
-27 -86 -31 -377 l-3 -296 -124 -30 c-335 -83 -541 -238 -612 -462 -22 -66
-24 -89 -20 -176 9 -194 101 -369 302 -574 63 -64 677 -660 1364 -1326 l1250
-1210 0 -1335 c1 -1480 -2 -1393 68 -1540 28 -58 55 -94 122 -160 97 -96 171
-138 298 -170 73 -19 115 -20 940 -20 l864 0 -6 -32 c-16 -95 -924 -6645 -929
-6709 -7 -84 7 -232 30 -324 54 -213 213 -373 412 -414 129 -27 297 -8 466 53
50 18 1558 751 3351 1629 1794 879 3267 1597 3275 1597 8 0 1481 -719 3274
-1597 1794 -878 3302 -1611 3352 -1629 177 -64 347 -81 483 -49 292 69 457
369 421 766 -7 83 -905 6559 -925 6677 l-6 32 91 0 c117 0 214 22 320 72 69
33 100 56 165 122 86 87 128 156 166 271 23 70 24 73 27 677 l3 606 411 399
411 398 176 17 c957 95 1635 418 2103 1003 338 422 524 941 568 1586 l11 164
284 280 c242 238 293 294 344 374 85 133 122 239 128 366 5 89 2 109 -21 178
-42 125 -107 211 -221 292 -148 105 -257 142 -695 235 -184 39 -340 77 -346
83 -6 7 -40 48 -76 92 -354 431 -904 727 -1568 845 -312 55 -262 53 -1745 60
l-1380 6 -654 141 c-360 78 -657 146 -661 150 -4 4 -855 1411 -1891 3127
-1252 2073 -1906 3145 -1950 3200 -213 265 -508 381 -769 302z m370 -7456
c862 -45 1517 -256 2070 -668 141 -105 415 -377 522 -517 460 -607 678 -1347
678 -2303 0 -628 -85 -1167 -257 -1632 -48 -130 -178 -393 -259 -521 -281
-448 -672 -804 -1144 -1044 -368 -186 -731 -290 -1230 -351 -180 -22 -787 -31
-1017 -15 -753 53 -1335 228 -1802 542 -166 111 -268 196 -416 344 -410 410
-702 939 -841 1523 -138 581 -157 1343 -48 1972 100 581 322 1097 650 1510
176 222 479 489 736 650 610 381 1429 558 2358 510z m-4180 -950 l0 -840
-1080 0 -1080 0 0 -2580 0 -2580 -1055 0 -1055 0 -2 2578 -3 2577 -1077 3
-1078 2 0 840 0 840 3215 0 3215 0 0 -840z m12570 817 c349 -48 578 -112 815
-227 346 -168 598 -415 774 -759 261 -511 304 -1301 105 -1911 -235 -717 -785
-1163 -1624 -1314 -307 -55 -376 -59 -1187 -63 l-753 -5 0 -1269 0 -1269
-1055 0 -1055 0 0 3420 0 3421 1928 -4 c1748 -3 1939 -5 2052 -20z"/>
<path d="M11550 14014 c-326 -41 -577 -161 -793 -380 -278 -280 -416 -700
-447 -1358 -21 -439 21 -870 116 -1184 74 -244 172 -419 324 -576 260 -269
568 -390 995 -389 260 0 452 38 643 128 534 252 757 760 779 1775 8 385 -14
634 -78 900 -72 296 -181 509 -351 686 -193 201 -432 328 -715 380 -85 15
-398 27 -473 18z"/>
<path d="M18532 13348 l3 -763 270 -3 c529 -6 785 30 999 141 94 48 203 151
258 242 64 106 91 202 96 347 7 192 -29 325 -124 470 -90 135 -213 222 -390
273 -158 46 -278 55 -715 55 l-399 0 2 -762z"/>
</g>
</svg>
