<?xml version="1.0" standalone="no"?>
<!DOCTYPE svg PUBLIC "-//W3C//DTD SVG 20010904//EN"
 "http://www.w3.org/TR/2001/REC-SVG-20010904/DTD/svg10.dtd">
<svg version="1.0" xmlns="http://www.w3.org/2000/svg"
 width="2362.000000pt" height="2362.000000pt" viewBox="0 0 2362.000000 2362.000000"
 preserveAspectRatio="xMidYMid meet">

<g transform="translate(0.000000,2362.000000) scale(0.100000,-0.100000)"
fill="#000000" stroke="none">
<path d="M11460 23609 c-486 -31 -972 -126 -1445 -284 -686 -229 -1286 -564
-1855 -1035 -156 -130 -565 -537 -691 -690 -681 -820 -1105 -1749 -1269 -2780
-241 -1515 152 -3087 1078 -4309 299 -395 685 -784 1077 -1086 980 -755 2216
-1175 3460 -1175 1136 0 2254 345 3200 987 497 338 968 787 1337 1274 926
1222 1319 2794 1078 4309 -164 1031 -588 1960 -1269 2780 -126 153 -535 560
-691 690 -890 737 -1920 1173 -3070 1300 -264 29 -659 37 -940 19z"/>
<path d="M11110 10469 c-2827 -92 -5588 -731 -8103 -1875 -444 -203 -1001
-483 -1377 -694 -272 -153 -384 -217 -432 -246 -510 -310 -622 -380 -960 -606
l-238 -158 0 -3445 0 -3445 11810 0 11810 0 0 3445 0 3445 -237 158 c-271 180
-465 305 -703 449 -91 55 -194 118 -230 140 -63 39 -142 84 -460 263 -376 211
-933 491 -1377 694 -2382 1083 -4970 1711 -7653 1856 -543 29 -1304 37 -1850
19z"/>
</g>
</svg>
