<?xml version="1.0" standalone="no"?>
<!DOCTYPE svg PUBLIC "-//W3C//DTD SVG 20010904//EN"
 "http://www.w3.org/TR/2001/REC-SVG-20010904/DTD/svg10.dtd">
<svg version="1.0" xmlns="http://www.w3.org/2000/svg"
 width="2362.000000pt" height="2362.000000pt" viewBox="0 0 2362.000000 2362.000000"
 preserveAspectRatio="xMidYMid meet">

<g transform="translate(0.000000,2362.000000) scale(0.100000,-0.100000)"
fill="#000000" stroke="none">
<path d="M11460 23609 c-486 -31 -972 -126 -1445 -284 -686 -229 -1286 -564
-1855 -1035 -156 -130 -565 -537 -691 -690 -681 -820 -1105 -1749 -1269 -2780
-241 -1515 152 -3087 1078 -4309 299 -395 685 -784 1077 -1086 980 -755 2216
-1175 3460 -1175 1136 0 2254 345 3200 987 497 338 968 787 1337 1274 926
1222 1319 2794 1078 4309 -164 1031 -588 1960 -1269 2780 -126 153 -535 560
-691 690 -890 737 -1920 1173 -3070 1300 -264 29 -659 37 -940 19z m640 -1539
c996 -75 1894 -475 2604 -1160 1220 -1178 1599 -2991 953 -4565 -523 -1277
-1660 -2216 -3011 -2490 -1284 -259 -2592 89 -3576 952 -1328 1166 -1771 3062
-1097 4698 67 165 151 336 179 370 14 17 37 57 52 90 34 74 78 146 127 206 20
25 48 68 60 95 31 65 170 249 306 404 714 813 1724 1316 2813 1399 155 12 437
12 590 1z"/>
<path d="M11110 10469 c-2827 -92 -5588 -731 -8103 -1875 -444 -203 -1001
-483 -1377 -694 -276 -155 -384 -217 -432 -246 -26 -16 -103 -62 -170 -103
-227 -137 -412 -253 -616 -387 l-202 -133 0 -3411 0 -3410 11600 0 11600 0 0
3410 0 3410 -132 88 c-169 112 -387 251 -598 379 -91 55 -194 118 -230 140
-63 39 -142 84 -460 263 -376 211 -933 491 -1377 694 -2382 1083 -4970 1711
-7653 1856 -543 29 -1304 37 -1850 19z m469 -1530 c31 -7 61 -6 100 2 70 16
270 15 335 0 37 -9 62 -9 108 0 56 11 115 10 423 -7 261 -15 789 -65 1160
-110 2700 -328 5346 -1185 7635 -2472 207 -116 463 -265 533 -309 l37 -23 0
-2155 0 -2155 -10100 0 -10100 0 0 2155 0 2155 37 23 c70 44 326 193 533 309
2565 1443 5556 2336 8595 2567 143 11 278 20 300 19 22 0 85 4 140 10 103 10
187 7 264 -9z"/>
</g>
</svg>
