<?xml version="1.0" standalone="no"?>
<!DOCTYPE svg PUBLIC "-//W3C//DTD SVG 20010904//EN"
 "http://www.w3.org/TR/2001/REC-SVG-20010904/DTD/svg10.dtd">
<svg version="1.0" xmlns="http://www.w3.org/2000/svg"
 width="9842.000000pt" height="9842.000000pt" viewBox="0 0 9842.000000 9842.000000"
 preserveAspectRatio="xMidYMid meet">

<g transform="translate(0.000000,9842.000000) scale(0.100000,-0.100000)"
fill="#000000" stroke="none">
<path d="M49024 96210 c-329 -26 -655 -118 -1002 -285 -661 -319 -1233 -867
-1715 -1642 -286 -462 -4590 -7576 -8857 -14643 -3995 -6617 -6722 -11125
-6740 -11143 -25 -27 -1166 -285 -3385 -767 -610 -133 -1326 -289 -1590 -347
l-480 -105 -9995 -23 -9995 -22 -160 -58 c-365 -131 -577 -240 -825 -426 -497
-372 -837 -864 -1019 -1477 -67 -225 -76 -397 -91 -1737 -6 -511 -13 -931 -15
-933 -2 -3 -149 -40 -326 -83 -367 -90 -569 -148 -784 -224 -1048 -373 -1685
-943 -1949 -1744 -88 -269 -104 -399 -87 -706 14 -235 32 -359 77 -543 133
-540 413 -1026 924 -1602 207 -234 573 -593 3120 -3065 1995 -1937 2789 -2706
5457 -5289 l2571 -2488 5 -5017 c5 -4878 8 -5435 37 -5946 19 -324 50 -546 96
-690 25 -76 169 -379 230 -482 86 -147 167 -246 359 -442 447 -455 731 -627
1285 -775 125 -34 251 -53 440 -67 114 -9 1067 -13 3628 -16 2698 -3 3472 -7
3472 -16 0 -7 -5 -30 -10 -52 -17 -70 -229 -1582 -924 -6585 -1225 -8811
-2578 -18604 -2911 -21060 l-57 -415 5 -265 c7 -328 39 -628 98 -920 99 -490
331 -929 665 -1264 355 -355 767 -555 1289 -628 135 -19 520 -15 695 6 412 49
878 172 1177 310 893 411 7250 3505 14663 7136 5357 2624 10155 4966 12050
5882 624 302 743 358 760 358 8 0 82 -32 165 -72 802 -381 5656 -2749 11670
-5693 8510 -4166 14714 -7185 15639 -7611 482 -222 1226 -362 1731 -325 343
25 587 88 860 221 745 363 1198 1117 1316 2190 17 149 17 659 1 810 -41 374
-1192 8722 -2623 19020 -884 6364 -1226 8805 -1248 8900 -6 25 -11 51 -11 58
0 9 67 12 303 12 383 0 564 19 827 85 208 53 396 123 615 230 256 124 371 210
620 459 378 379 552 653 712 1121 75 220 88 307 103 685 11 275 29 2507 30
3666 0 391 3 785 7 877 l6 166 750 728 c413 400 1055 1022 1426 1382 372 360
802 777 957 928 l281 273 464 45 c553 54 800 82 1174 136 3419 485 5930 1754
7724 3904 517 618 923 1239 1284 1965 508 1019 844 2086 1052 3342 86 523 134
968 185 1708 l31 445 512 504 c736 725 1575 1566 1706 1711 266 294 455 568
625 909 221 441 307 802 310 1311 1 248 -6 293 -85 530 -193 583 -483 950
-1049 1327 -563 375 -1007 517 -2845 912 -616 132 -1259 285 -1346 319 -16 6
-111 114 -235 264 -293 355 -415 491 -673 748 -327 326 -599 560 -971 839
-1290 966 -2913 1656 -4735 2015 -557 109 -1029 182 -1360 210 -763 65 -991
67 -9645 106 l-2285 11 -1325 285 c-2773 597 -4121 900 -4150 931 -20 20
-3108 5126 -7140 11803 -5321 8811 -8283 13681 -8776 14425 -112 170 -242 321
-445 520 -407 398 -839 669 -1322 829 -330 110 -692 159 -1003 136z m586
-31150 c3467 -128 6104 -858 8349 -2309 703 -455 1108 -786 1829 -1496 473
-465 867 -901 1113 -1230 1558 -2081 2439 -4572 2689 -7595 116 -1407 99
-3016 -46 -4450 -150 -1485 -448 -2867 -881 -4085 -143 -401 -283 -720 -564
-1285 -272 -548 -441 -852 -670 -1208 -949 -1472 -2232 -2739 -3706 -3659
-1261 -788 -2612 -1339 -4113 -1678 -703 -159 -1682 -317 -2230 -359 -865 -67
-2710 -95 -3680 -56 -593 25 -1485 115 -2180 221 -2250 344 -4071 1007 -5635
2052 -691 462 -1088 789 -1710 1412 -492 491 -847 900 -1240 1430 -470 633
-828 1213 -1190 1930 -471 932 -809 1842 -1064 2860 -565 2262 -687 5290 -315
7860 299 2065 921 3880 1881 5483 359 600 808 1221 1214 1677 284 319 772 798
1165 1141 706 618 1386 1102 2124 1513 211 118 773 397 1000 496 1821 800
3904 1245 6245 1334 300 12 1313 12 1615 1z m26955 -491 c6336 -12 7702 -22
8210 -59 255 -19 874 -115 1300 -201 928 -187 1644 -429 2415 -816 307 -154
521 -276 780 -448 929 -614 1643 -1391 2213 -2405 571 -1017 928 -2286 1052
-3735 30 -355 39 -594 39 -1035 -1 -444 -9 -660 -40 -1025 -142 -1688 -601
-3131 -1378 -4337 -534 -829 -1242 -1547 -2076 -2107 -1056 -709 -2287 -1182
-3790 -1456 -903 -164 -1330 -207 -2355 -235 -385 -10 -2029 -25 -3870 -35
-588 -3 -1247 -8 -1462 -11 l-393 -6 0 -5284 0 -5284 -4395 0 -4395 0 0 14250
0 14251 1463 -6 c804 -3 3811 -10 6682 -16z m-43945 -3484 l0 -3495 -4497 -2
-4498 -3 -3 -10747 -2 -10748 -4389 0 -4389 0 -6 1563 c-3 859 -8 5689 -12
10732 -3 5044 -9 9173 -12 9177 -4 3 -1352 9 -2997 12 -1644 3 -3662 9 -4482
12 l-1493 6 0 3494 0 3494 13390 0 13390 0 0 -3495z"/>
<path d="M48162 58399 c-201 -18 -567 -85 -847 -156 -369 -93 -702 -213 -1030
-372 -493 -239 -884 -511 -1307 -908 -1302 -1220 -1907 -3012 -2029 -6012 -15
-378 -6 -1438 15 -1776 109 -1724 402 -3038 902 -4045 263 -531 566 -951 989
-1376 968 -971 2055 -1443 3555 -1545 214 -14 833 -14 1070 1 824 51 1470 207
2128 514 645 302 1170 691 1615 1196 743 845 1220 2061 1457 3720 83 580 132
1139 171 1935 17 355 23 1528 10 1870 -37 951 -139 1707 -338 2500 -300 1199
-752 2070 -1452 2798 -532 552 -1148 970 -1854 1256 -406 164 -953 309 -1307
345 -487 50 -1460 81 -1748 55z"/>
<path d="M77210 57994 c0 -1252 20 -5547 25 -5552 3 -3 377 -10 832 -15 1530
-18 2380 22 3081 143 662 116 1262 337 1634 603 399 285 721 650 918 1038 177
349 259 663 290 1117 50 738 -66 1324 -369 1866 -403 719 -949 1139 -1796
1380 -464 132 -807 178 -1540 206 -143 6 -893 13 -1667 17 l-1408 6 0 -809z"/>
</g>
</svg>
