<?xml version="1.0" standalone="no"?>
<!DOCTYPE svg PUBLIC "-//W3C//DTD SVG 20010904//EN"
 "http://www.w3.org/TR/2001/REC-SVG-20010904/DTD/svg10.dtd">
<svg version="1.0" xmlns="http://www.w3.org/2000/svg"
 width="9842.000000pt" height="9842.000000pt" viewBox="0 0 9842.000000 9842.000000"
 preserveAspectRatio="xMidYMid meet">

<g transform="translate(0.000000,9842.000000) scale(0.100000,-0.100000)"
fill="#000000" stroke="none">
<path d="M48660 96779 c-223 -26 -450 -79 -618 -145 -187 -73 -528 -246 -600
-303 -38 -32 -72 -51 -88 -51 -18 0 -49 -22 -108 -77 -46 -43 -156 -145 -245
-228 -365 -337 -598 -564 -1059 -1035 -639 -652 -902 -936 -902 -973 0 -14
-22 -44 -60 -82 -35 -35 -60 -68 -60 -80 0 -12 -20 -41 -45 -65 -31 -30 -53
-65 -70 -110 -14 -36 -44 -91 -68 -123 -67 -90 -210 -323 -662 -1082 -1343
-2253 -2176 -3631 -2254 -3729 -17 -21 -31 -48 -31 -60 0 -29 -32 -86 -90
-163 -27 -36 -57 -86 -66 -111 -9 -26 -36 -67 -60 -92 -23 -25 -52 -69 -63
-98 -10 -29 -46 -92 -79 -140 -97 -142 -292 -464 -1187 -1957 -1001 -1670
-1172 -1948 -1252 -2038 -18 -20 -33 -46 -33 -57 0 -34 -24 -81 -80 -155 -60
-81 -90 -136 -90 -165 0 -11 -15 -37 -33 -57 -55 -62 -123 -170 -327 -518
-170 -291 -2263 -3784 -2508 -4185 -52 -85 -110 -176 -128 -201 -19 -26 -41
-66 -49 -90 -9 -23 -37 -65 -63 -93 -27 -28 -52 -64 -56 -80 -4 -16 -27 -51
-50 -77 -24 -27 -52 -73 -64 -106 -12 -32 -43 -92 -70 -133 -147 -226 -1591
-2633 -2626 -4376 -75 -127 -155 -252 -176 -278 -21 -26 -48 -72 -60 -103 -12
-33 -41 -78 -69 -109 -32 -35 -52 -69 -61 -101 -9 -32 -29 -64 -61 -98 -26
-28 -51 -64 -55 -80 -4 -17 -28 -53 -53 -81 -31 -34 -54 -73 -69 -117 -13 -37
-28 -69 -33 -72 -12 -8 -264 -414 -636 -1025 -375 -617 -527 -873 -725 -1220
-218 -382 -508 -858 -581 -951 -14 -19 -125 -44 -1447 -329 -1490 -322 -2483
-539 -2845 -624 -101 -24 -196 -38 -290 -45 -449 -33 -2207 -47 -7670 -61
-11279 -29 -11593 -31 -12145 -110 -209 -30 -261 -49 -505 -177 -239 -125
-339 -190 -485 -311 -309 -256 -1328 -1274 -1655 -1651 -172 -199 -420 -634
-461 -808 -9 -37 -27 -89 -40 -114 -14 -28 -24 -64 -24 -90 0 -23 -10 -62 -21
-87 -21 -43 -22 -55 -28 -809 l-6 -766 -105 -44 c-112 -48 -396 -192 -470
-238 -25 -15 -62 -43 -83 -61 -25 -23 -47 -34 -67 -34 -23 0 -44 -12 -79 -45
-26 -25 -52 -45 -57 -45 -5 0 -34 -25 -64 -56 -30 -31 -100 -95 -155 -142
-127 -109 -841 -817 -906 -899 -71 -88 -81 -118 -90 -270 -4 -72 -13 -142 -20
-155 -6 -12 -40 -53 -74 -89 -78 -83 -156 -200 -239 -359 -78 -151 -121 -274
-135 -395 -30 -247 -38 -1662 -11 -1895 24 -203 110 -582 177 -774 56 -161 86
-211 191 -318 113 -116 111 -109 112 -363 l0 -180 548 -546 c870 -867 2179
-2142 5582 -5439 536 -520 1718 -1665 2625 -2546 908 -880 1745 -1692 1861
-1805 l212 -204 1 -610 c6 -3609 23 -8568 31 -9230 10 -858 20 -1139 45 -1285
21 -124 140 -429 246 -628 58 -110 214 -322 324 -442 349 -379 1619 -1660
1647 -1660 7 0 53 -36 102 -80 95 -86 189 -147 356 -230 161 -81 260 -115 445
-155 141 -30 202 -38 360 -45 346 -17 1672 -30 3000 -30 721 0 1589 -3 1930
-7 l621 -6 -18 -131 c-10 -72 -101 -716 -203 -1431 -376 -2651 -525 -3757
-525 -3901 0 -45 -4 -65 -17 -75 -29 -24 -43 -76 -43 -157 0 -46 -8 -111 -20
-157 -13 -52 -20 -111 -20 -175 0 -60 -4 -100 -12 -108 -7 -7 -14 -66 -19
-144 -8 -158 -13 -200 -85 -733 -84 -628 -221 -1605 -489 -3485 -262 -1842
-668 -4697 -920 -6470 -215 -1519 -295 -2131 -295 -2255 0 -31 -7 -55 -21 -74
-28 -38 -38 -90 -39 -197 0 -58 -7 -117 -20 -165 -13 -49 -20 -107 -20 -170 0
-69 -4 -100 -14 -108 -10 -8 -15 -56 -19 -189 -4 -126 -16 -246 -41 -417 -19
-132 -85 -573 -145 -980 -315 -2118 -452 -3150 -527 -3955 -22 -232 -31 -1091
-15 -1402 20 -387 45 -512 172 -884 88 -256 154 -407 206 -464 24 -26 43 -55
43 -64 0 -26 25 -68 59 -100 17 -17 31 -38 31 -48 0 -10 57 -80 127 -156 187
-202 1051 -1068 1252 -1255 96 -89 216 -201 265 -248 50 -47 102 -90 116 -94
14 -4 44 -25 67 -46 98 -90 486 -249 728 -299 180 -37 299 -42 840 -37 459 4
538 7 675 26 299 41 572 102 748 168 453 169 1531 685 5017 2403 1122 553
1727 849 2145 1050 146 70 978 477 1850 905 1870 917 2322 1138 3130 1532 333
162 1128 557 1767 878 639 320 1195 595 1235 611 186 70 1006 469 2358 1146
1164 583 1490 743 1690 831 266 116 1215 580 2362 1153 727 363 1256 622 1426
696 182 79 793 378 2257 1105 1569 779 1624 806 1675 806 50 0 343 -142 1865
-901 1565 -781 2008 -996 2115 -1027 14 -4 675 -330 1470 -725 1675 -832 2085
-1032 2405 -1170 55 -24 595 -292 1200 -595 605 -303 1258 -626 1450 -719
1085 -524 1853 -899 2990 -1461 1392 -688 1570 -775 2160 -1060 572 -275 1131
-549 2350 -1150 589 -290 1241 -611 1450 -712 209 -102 535 -261 725 -353 190
-92 748 -367 1240 -610 1278 -632 1962 -967 2216 -1085 122 -57 523 -252 890
-433 1470 -725 2174 -1048 2539 -1165 190 -61 492 -114 779 -137 174 -14 1010
-13 1155 1 139 13 281 48 370 89 36 17 86 33 111 37 64 7 357 150 412 200 23
22 56 43 72 47 16 4 68 44 116 89 48 45 147 136 219 202 264 239 1242 1238
1375 1404 28 35 70 85 93 111 22 27 44 63 48 82 4 18 22 49 40 68 59 63 148
266 243 560 133 407 147 541 147 1425 0 422 -4 655 -13 755 -40 445 -116 1025
-351 2680 -271 1903 -371 2657 -371 2790 0 57 -4 81 -15 90 -11 9 -15 35 -15
104 0 60 -7 118 -20 167 -11 41 -20 108 -20 149 -1 93 -12 146 -39 174 -18 19
-21 35 -21 117 0 104 -31 386 -84 759 -148 1052 -438 3061 -445 3085 -5 17
-12 64 -15 105 -6 79 -281 2030 -841 5965 -184 1293 -341 2406 -350 2475 -8
68 -15 175 -15 236 0 108 -1 114 -27 145 l-28 33 -6 255 c-5 232 -8 261 -27
309 -17 41 -22 74 -22 145 0 91 -20 163 -49 181 -6 4 -11 35 -11 69 0 143 -80
742 -371 2787 -296 2084 -404 2859 -397 2865 2 1 89 46 193 98 202 103 293
165 461 314 165 147 780 751 1140 1120 592 608 682 718 831 1018 73 147 85
175 128 317 15 48 33 93 41 99 9 8 14 33 14 76 0 47 5 71 19 91 18 25 20 58
30 412 6 212 14 1329 18 2483 l6 2098 466 458 c602 590 803 784 926 889 55 47
231 214 390 372 170 168 310 299 339 315 47 27 59 29 250 42 363 23 788 72
904 103 45 13 104 20 156 20 135 0 681 79 1066 155 1807 355 3401 971 4685
1813 572 375 854 622 1958 1722 991 986 1437 1462 1709 1825 633 843 1204
1973 1578 3120 248 763 412 1544 524 2505 40 338 46 458 46 856 l0 372 1040
1033 1040 1034 0 170 c0 249 9 275 155 475 84 114 128 195 169 307 50 140 156
610 193 858 15 100 18 187 18 530 0 435 -4 490 -55 850 -78 541 -191 852 -381
1050 -80 84 -90 112 -99 280 -9 167 -20 197 -114 307 -77 89 -680 686 -791
783 -44 38 -123 111 -176 162 -58 56 -104 93 -117 93 -11 0 -52 29 -91 64 -71
66 -117 96 -146 96 -10 0 -38 19 -63 41 -88 78 -530 279 -863 394 -299 102
-1061 279 -1259 292 -70 5 -102 11 -120 25 -35 26 -110 44 -273 68 -169 24
-223 37 -263 61 -23 14 -51 19 -106 19 -42 0 -95 7 -119 15 -24 9 -89 22 -144
31 -55 8 -209 36 -341 62 l-242 48 -160 155 c-88 85 -340 330 -559 544 -550
537 -831 793 -1200 1088 -539 431 -1125 801 -1798 1132 -521 257 -1364 588
-1603 630 -87 15 -162 39 -233 75 -23 12 -58 20 -90 20 -36 0 -58 6 -76 20
-18 14 -41 20 -73 20 -52 0 -232 35 -530 104 -505 116 -1061 210 -1660 280
-822 97 -985 100 -7470 121 l-4195 14 -250 55 c-137 30 -448 98 -690 151 -242
53 -492 107 -555 120 -63 13 -468 101 -900 195 -432 94 -1044 227 -1360 295
-316 69 -683 149 -815 178 l-240 52 -107 160 c-118 176 -346 554 -513 850
-193 341 -335 578 -874 1455 -310 505 -425 687 -457 721 -14 14 -27 43 -31 65
-4 26 -18 52 -43 79 -21 22 -42 55 -49 74 -6 19 -37 71 -70 115 -69 96 -91
137 -91 168 0 15 -18 42 -49 72 -28 27 -57 68 -66 93 -10 25 -48 91 -85 146
-38 56 -200 325 -361 597 -388 658 -2305 3853 -2402 4003 -42 66 -83 141 -92
168 -10 30 -36 71 -66 103 -27 30 -49 62 -49 72 0 10 -21 39 -46 65 -26 26
-56 71 -68 100 -12 30 -63 119 -112 199 -214 342 -1884 3124 -2459 4095 -310
524 -386 649 -436 712 -15 19 -39 64 -53 102 -18 46 -40 81 -71 111 -25 24
-45 53 -45 65 0 11 -8 32 -18 46 -169 250 -462 724 -862 1394 -1099 1839
-1475 2463 -1615 2675 -45 69 -92 150 -104 181 -13 34 -40 73 -67 100 -25 24
-44 52 -44 64 0 21 -20 53 -113 188 -21 31 -43 75 -48 99 -6 24 -19 52 -29 63
-58 62 -376 589 -1913 3160 -546 912 -917 1526 -935 1548 -9 10 -29 17 -53 17
-31 0 -43 6 -67 36 -17 20 -38 57 -47 83 -31 83 -85 171 -148 238 l-61 65 29
24 29 23 -26 28 c-14 15 -29 39 -33 53 -4 14 -31 50 -60 80 -30 30 -72 80 -94
110 -93 125 -1520 1573 -1640 1665 -29 22 -147 130 -262 240 -180 172 -216
202 -255 212 -25 6 -62 27 -83 46 -110 99 -504 284 -770 361 -313 91 -461 106
-1006 105 -236 -1 -464 -5 -505 -10z m890 -2604 c337 -49 567 -124 879 -286
169 -88 310 -181 378 -251 81 -83 233 -329 1179 -1913 587 -984 780 -1294 828
-1334 9 -7 16 -23 16 -35 1 -34 33 -95 94 -176 31 -41 61 -93 67 -115 18 -66
28 -85 43 -85 24 0 54 -39 77 -99 11 -31 51 -101 88 -156 100 -148 150 -230
1482 -2449 1088 -1812 1293 -2155 1461 -2445 24 -40 59 -92 79 -115 44 -50 69
-97 69 -130 0 -13 16 -43 35 -66 64 -77 357 -554 1260 -2055 907 -1507 1211
-2004 1263 -2063 11 -13 24 -41 27 -63 4 -24 26 -67 51 -102 81 -114 105 -152
110 -177 10 -48 24 -70 49 -80 14 -5 27 -15 29 -22 2 -7 9 -32 15 -55 7 -27
18 -43 27 -43 24 0 62 -48 79 -101 9 -26 48 -97 87 -156 40 -59 175 -281 301
-493 127 -212 627 -1049 1112 -1860 485 -811 949 -1587 1030 -1725 194 -326
318 -522 361 -565 19 -20 37 -51 40 -70 9 -46 34 -96 74 -145 53 -66 79 -111
91 -160 10 -39 18 -50 44 -61 32 -13 45 -36 45 -81 0 -13 9 -32 21 -44 50 -50
315 -482 1117 -1819 910 -1517 1350 -2236 1412 -2307 17 -19 30 -43 30 -54 0
-28 24 -71 90 -164 55 -77 72 -111 84 -165 3 -16 16 -29 33 -36 23 -8 44 -40
109 -165 145 -277 540 -933 757 -1259 207 -312 321 -443 862 -987 l410 -413
1085 -236 c3578 -776 3778 -818 3945 -830 63 -5 88 -12 119 -32 46 -32 95 -39
326 -51 265 -14 2696 -30 6315 -41 4261 -13 4805 -22 5417 -91 285 -31 955
-147 1326 -229 1047 -230 2132 -606 3002 -1041 307 -154 484 -254 700 -399 81
-54 178 -114 216 -133 38 -19 94 -57 124 -84 89 -79 155 -128 248 -185 51 -30
117 -83 159 -125 40 -40 80 -73 89 -73 48 0 471 -414 551 -539 22 -35 254
-275 607 -629 l571 -572 140 -30 c77 -16 421 -88 765 -160 1798 -375 2255
-500 2785 -760 99 -49 199 -105 223 -126 51 -43 88 -114 132 -249 79 -248 104
-458 97 -815 -8 -372 -36 -522 -153 -818 -133 -335 -261 -588 -336 -664 -34
-34 -48 -57 -48 -76 0 -33 -8 -45 -38 -61 -12 -6 -47 -47 -77 -90 -108 -154
-352 -408 -1467 -1526 l-947 -950 -16 -280 c-44 -771 -95 -1264 -186 -1815
-198 -1202 -540 -2255 -1074 -3315 -689 -1365 -1258 -2059 -2214 -2700 -628
-420 -1880 -1072 -2261 -1176 -85 -23 -280 -87 -302 -99 -9 -5 -54 -19 -100
-30 -46 -12 -198 -57 -338 -100 -590 -183 -1266 -350 -1835 -454 -470 -86
-1495 -217 -1915 -246 -249 -16 -256 -17 -298 -39 -53 -27 -162 -114 -302
-242 -377 -345 -1382 -1323 -3176 -3091 l-992 -978 -5 -2242 c-6 -2507 -7
-2550 -72 -2825 -81 -339 -199 -592 -326 -695 -134 -109 -475 -226 -815 -279
-119 -18 -194 -22 -511 -26 l-371 -5 -414 -416 c-402 -405 -540 -555 -592
-644 l-25 -43 35 -260 c113 -845 431 -3102 1074 -7625 383 -2690 446 -3163
455 -3380 4 -88 8 -107 24 -120 26 -20 30 -39 35 -155 3 -55 12 -124 21 -153
11 -38 15 -83 13 -157 -3 -96 -1 -105 19 -124 17 -16 21 -28 17 -53 -14 -87
169 -1413 1171 -8468 195 -1372 370 -2610 389 -2750 116 -838 186 -1402 188
-1498 0 -64 4 -78 26 -104 24 -28 27 -42 33 -152 4 -72 14 -139 24 -166 13
-36 15 -64 10 -141 -6 -83 -4 -98 11 -113 14 -15 18 -39 19 -139 2 -123 32
-375 85 -722 92 -605 125 -1067 117 -1625 -6 -401 -13 -468 -82 -788 -47 -216
-60 -259 -119 -382 -27 -55 -36 -86 -34 -115 3 -38 1 -41 -49 -71 -92 -55
-364 -138 -543 -166 -134 -21 -744 -17 -935 5 -417 50 -798 168 -1370 427 -88
40 -446 213 -795 385 -624 307 -1023 502 -1430 695 -501 238 -761 365 -1460
714 -735 367 -1181 585 -1965 961 -768 369 -1077 520 -2005 984 -514 256
-1122 556 -1350 665 -1010 483 -1503 724 -2200 1073 -862 433 -1374 685 -2040
1003 -846 405 -1303 628 -1950 953 -686 345 -1060 528 -2005 982 -984 472
-1330 641 -1860 910 -502 254 -1037 518 -1800 885 -957 461 -1380 668 -3325
1625 -1182 582 -2068 1013 -2252 1096 l-88 40 -77 -34 c-157 -70 -957 -459
-2123 -1032 -1831 -901 -2141 -1052 -3630 -1770 -283 -137 -906 -445 -1385
-685 -876 -439 -1261 -627 -2115 -1035 -763 -365 -1129 -544 -1850 -907 -639
-321 -1123 -557 -2070 -1011 -672 -322 -1217 -590 -1845 -907 -628 -318 -1027
-513 -1765 -865 -667 -318 -1095 -528 -2095 -1027 -511 -255 -1114 -552 -1340
-660 -1038 -497 -1206 -578 -1600 -770 -231 -113 -528 -261 -660 -330 -327
-169 -1077 -537 -2060 -1011 -451 -217 -1007 -486 -1235 -597 -987 -481 -1285
-602 -1729 -705 -290 -67 -717 -92 -1096 -65 -240 17 -442 62 -633 142 -101
42 -117 57 -114 104 2 30 -8 60 -43 128 -25 49 -45 96 -45 105 0 9 -4 21 -9
26 -13 14 -108 462 -121 574 -21 178 -29 536 -20 820 16 447 47 777 121 1295
53 368 79 602 79 704 0 70 4 88 21 110 19 24 20 35 14 117 -6 71 -3 102 10
145 9 30 20 107 24 171 6 107 9 119 35 149 21 26 26 40 22 62 -15 78 117 1053
659 4868 1074 7554 1109 7805 1090 7889 -4 19 0 35 13 52 30 38 33 57 21 123
-10 54 -9 71 10 143 13 50 21 113 21 161 0 107 15 178 45 213 18 22 23 37 19
57 -11 54 50 547 206 1651 154 1094 716 5051 1070 7541 l300 2104 -542 543
-542 542 -3330 4 c-2359 3 -3385 7 -3516 15 -416 26 -603 60 -805 147 -273
117 -388 227 -429 407 -22 95 -73 247 -101 301 -21 40 -24 56 -19 97 5 38 3
56 -10 75 -14 22 -18 74 -27 338 -16 539 -29 3659 -29 7254 l0 3462 -167 169
c-93 93 -350 346 -573 563 -555 540 -2763 2686 -3605 3504 -928 901 -1743
1693 -2010 1955 -1227 1202 -1742 1711 -1785 1764 -33 41 -61 66 -78 69 -45 9
-214 168 -767 723 -291 292 -557 551 -590 575 -78 56 -567 540 -989 979 -486
504 -569 596 -669 734 -27 36 -55 66 -62 66 -17 0 -30 23 -38 68 -4 21 -24 50
-55 80 -93 91 -344 640 -417 915 -87 323 -91 897 -9 1222 27 109 85 279 110
322 38 65 98 109 258 189 352 174 982 385 1406 469 112 23 171 47 250 102 36
26 275 255 532 511 l466 464 5 1032 c3 614 9 1082 16 1156 32 363 89 582 231
875 66 139 110 185 224 239 123 59 206 90 300 116 43 11 97 30 119 42 34 17
52 19 105 15 47 -5 72 -2 93 9 54 27 1168 34 7834 43 10074 15 11590 22 11642
56 18 13 37 15 78 10 50 -7 56 -5 78 19 19 20 34 26 68 26 55 0 253 34 604
105 230 46 3065 659 4119 891 l338 74 347 341 c557 548 692 697 874 965 154
227 479 760 761 1249 79 136 142 234 167 257 26 25 39 46 39 63 0 35 22 77 86
161 55 73 84 129 84 163 0 11 15 35 33 54 58 63 450 702 1332 2172 817 1362
1104 1832 1182 1934 18 24 33 54 33 67 0 38 11 54 46 69 28 12 35 20 40 55 6
38 31 81 119 205 19 28 38 68 42 89 4 24 19 54 38 75 51 57 163 231 367 576
105 176 601 1006 1103 1845 501 839 989 1656 1084 1815 95 160 206 340 247
402 41 61 83 136 94 166 23 62 55 107 75 107 13 0 55 75 55 99 0 27 42 92 70
106 17 9 32 26 35 40 3 14 7 36 10 50 3 15 16 30 29 35 30 11 49 37 77 109 13
31 46 92 74 136 97 150 507 828 1120 1850 1001 1669 1303 2161 1371 2235 13
14 28 47 33 73 9 50 12 55 78 136 24 29 68 98 100 154 69 124 2620 4378 2781
4637 63 102 133 212 156 245 23 33 51 83 61 110 24 67 44 95 72 106 23 9 37
32 47 79 5 25 23 54 110 178 25 35 47 81 51 102 4 21 20 53 36 71 69 78 193
280 1059 1729 742 1242 881 1464 960 1528 135 111 457 289 686 378 186 73 399
121 641 144 125 12 499 3 623 -15z"/>
<path d="M47307 65710 c-59 -5 -268 -28 -465 -50 -196 -22 -514 -58 -707 -80
-405 -45 -393 -44 -507 -72 -75 -19 -94 -21 -140 -11 -50 11 -55 10 -90 -14
-35 -24 -40 -24 -87 -12 -41 10 -59 10 -98 0 -73 -19 -214 -47 -363 -71 -474
-77 -1794 -479 -2505 -762 -828 -330 -1953 -959 -2730 -1526 -491 -359 -1075
-875 -1789 -1582 -1239 -1228 -1866 -2010 -2468 -3080 -1042 -1852 -1623
-3757 -1852 -6080 -73 -741 -81 -940 -81 -2080 0 -1035 5 -1217 51 -1760 174
-2085 651 -3924 1438 -5535 482 -988 1095 -1919 1802 -2741 483 -561 1887
-1951 2504 -2479 342 -293 1079 -805 1460 -1015 63 -35 151 -88 195 -118 185
-127 1128 -556 1618 -736 1299 -476 3109 -871 4342 -946 226 -14 362 -28 405
-43 51 -18 3512 -16 3655 2 55 7 188 16 295 20 192 8 220 12 250 36 10 8 71
15 170 18 243 9 833 102 1504 237 1049 212 1905 486 2856 916 274 124 868 421
1103 553 541 302 964 575 1087 702 48 49 76 70 107 78 47 13 61 24 92 75 16
26 35 39 71 51 39 13 61 29 97 73 60 72 70 79 114 92 34 9 66 38 137 124 13
15 38 34 55 41 53 22 237 195 711 665 587 583 1343 1364 1680 1735 138 152
173 194 349 420 64 83 148 185 186 227 49 55 72 88 77 114 5 29 14 39 40 50
23 10 35 22 39 42 13 61 21 76 44 82 28 6 38 21 46 73 5 32 12 41 40 53 28 11
35 21 41 51 9 49 21 73 38 73 20 0 46 34 46 61 0 31 17 56 49 72 16 8 28 27
36 57 6 26 26 60 46 81 134 142 871 1577 845 1646 -4 8 12 54 34 101 43 91 91
226 294 827 220 652 373 1212 500 1831 260 1271 409 2988 393 4544 -6 557 -12
731 -42 1185 -102 1524 -392 3038 -829 4320 -176 518 -238 694 -260 735 -14
25 -32 73 -40 107 -26 99 -137 348 -353 793 -139 286 -228 448 -262 480 -26
25 -31 34 -67 134 -10 28 -46 89 -81 137 -61 85 -82 123 -100 184 -4 16 -19
35 -33 42 -34 17 -50 41 -50 75 0 20 -14 42 -45 76 -25 26 -85 103 -133 171
-338 481 -449 627 -710 940 -406 486 -890 1009 -1403 1516 -611 603 -1040 983
-1564 1385 -110 85 -255 198 -323 252 -67 53 -166 123 -220 155 -53 31 -131
79 -172 106 -41 27 -112 66 -157 88 -46 22 -90 50 -99 64 -30 46 -453 274
-1009 542 -674 326 -934 432 -1640 668 -896 300 -1684 510 -1841 490 -46 -5
-54 -3 -83 21 -27 22 -41 27 -79 25 -87 -5 -105 -2 -129 21 -23 21 -36 23
-201 29 -239 9 -488 50 -542 88 -20 15 -54 19 -180 24 -85 3 -258 17 -385 31
-317 34 -621 49 -1525 77 -451 13 -2364 20 -2503 9z m2103 -7944 c234 -22 422
-50 615 -91 1063 -228 2083 -779 2687 -1451 881 -980 1411 -2512 1562 -4519
81 -1067 43 -2355 -104 -3530 -148 -1178 -393 -2094 -765 -2850 -395 -804
-913 -1385 -1608 -1803 -1033 -620 -2413 -882 -3702 -702 -1174 164 -2279 713
-2963 1472 -1009 1118 -1538 2819 -1642 5278 -13 303 -13 1117 0 1420 73 1724
356 3051 879 4125 263 539 534 928 907 1297 396 391 852 695 1409 938 471 205
1148 386 1612 430 147 14 914 4 1113 -14z"/>
<path d="M6242 64787 l-532 -532 0 -3420 0 -3420 533 -533 532 -532 3863 0
3862 0 0 -9967 1 -9968 550 -552 550 -553 4252 0 4252 0 552 552 553 553 0
9967 0 9968 3843 0 3842 0 533 533 532 532 0 3420 0 3420 -533 533 -532 532
-13060 0 -13060 0 -533 -533z"/>
<path d="M67493 64788 l-533 -533 0 -13940 0 -13940 533 -533 532 -532 4270 0
4270 0 533 533 532 532 0 4656 0 4657 1808 5 c1691 5 1990 9 2657 37 1060 45
1873 133 2594 281 244 50 681 161 906 229 196 59 970 307 1000 320 11 5 49 16
85 25 213 52 1054 493 1465 768 552 369 915 691 1832 1627 768 784 904 942
1206 1400 347 528 609 1054 852 1714 338 920 510 1762 587 2886 17 246 17
1211 0 1465 -54 817 -160 1506 -319 2085 -260 948 -788 2084 -1223 2630 -229
287 -554 635 -1139 1221 -777 776 -1156 1118 -1483 1337 -1172 784 -2424 1223
-4208 1476 -360 51 -400 54 -810 66 -901 24 -4443 41 -12175 56 l-3240 6 -532
-534z m11947 -6618 c466 -17 689 -41 1055 -116 889 -182 1387 -444 1745 -919
181 -240 368 -625 464 -952 76 -259 106 -464 106 -721 0 -401 -76 -706 -274
-1102 -348 -696 -805 -1048 -1700 -1306 -605 -175 -1018 -227 -2006 -254 -387
-10 -1512 -30 -1712 -30 l-108 0 0 2711 0 2712 1073 -6 c589 -3 1200 -11 1357
-17z"/>
</g>
</svg>
